#define pict_13_width 150
#define pict_13_height 150
static char pict_13_bits[] = {
  0x00, 0x00, 0x00, 0x00, 0x00, 0x00, 0x00, 0x00, 0xFF, 0xFF, 0x0F, 0x00, 
  0x00, 0x00, 0x00, 0x00, 0x00, 0x00, 0x00, 0x00, 0x00, 0x00, 0x00, 0x00, 
  0x00, 0x00, 0xFC, 0xFF, 0xFF, 0xFF, 0x05, 0x00, 0x00, 0x00, 0x00, 0x00, 
  0x00, 0x00, 0x00, 0x00, 0x00, 0x00, 0x00, 0x00, 0x80, 0xFF, 0xFF, 0xFF, 
  0xFF, 0x3F, 0x00, 0x00, 0x00, 0x00, 0x00, 0x00, 0x00, 0x00, 0x00, 0x00, 
  0x00, 0x00, 0x00, 0xF8, 0xFF, 0xFF, 0xFF, 0xFF, 0xFF, 0x01, 0x00, 0x00, 
  0x00, 0x00, 0x00, 0x00, 0x00, 0x00, 0x00, 0x00, 0x00, 0x00, 0xFF, 0xFF, 
  0xFF, 0xFF, 0xFF, 0xFF, 0x1F, 0x00, 0x00, 0x00, 0x00, 0x00, 0x00, 0x00, 
  0x00, 0x00, 0x00, 0x00, 0xE0, 0xFF, 0xFF, 0xFF, 0xFF, 0xFF, 0xFF, 0x7F, 
  0x00, 0x00, 0x00, 0x00, 0x00, 0x00, 0x00, 0x00, 0x00, 0x00, 0x00, 0xF8, 
  0xFF, 0xFF, 0xFF, 0xFF, 0xFF, 0xFF, 0xFF, 0x01, 0x00, 0x00, 0x00, 0x00, 
  0x00, 0x00, 0x00, 0x00, 0x00, 0x00, 0xFE, 0xFF, 0xFF, 0x27, 0x40, 0xFE, 
  0xFF, 0xFF, 0x07, 0x00, 0x00, 0x00, 0x00, 0x00, 0x00, 0x00, 0x00, 0x00, 
  0x80, 0xFF, 0xFF, 0x1F, 0x00, 0x00, 0x80, 0xFF, 0xFF, 0x0F, 0x00, 0x00, 
  0x00, 0x00, 0x00, 0x00, 0x00, 0x00, 0x00, 0xC0, 0xFF, 0xFF, 0x01, 0x00, 
  0x00, 0x00, 0xF8, 0xFF, 0x7F, 0x00, 0x00, 0x00, 0x00, 0x00, 0x00, 0x00, 
  0x00, 0x00, 0xF0, 0xFF, 0x3F, 0x00, 0x00, 0x00, 0x00, 0x80, 0xFF, 0xBF, 
  0x01, 0x00, 0x00, 0x00, 0x00, 0x00, 0x00, 0x00, 0x00, 0xFC, 0xFF, 0x07, 
  0x00, 0x00, 0x00, 0x00, 0x00, 0xFC, 0xFF, 0x03, 0x00, 0x00, 0x00, 0x00, 
  0x00, 0x00, 0x00, 0x00, 0xFF, 0xFF, 0x00, 0x00, 0x00, 0x00, 0x00, 0x00, 
  0xF0, 0xFF, 0x0E, 0x00, 0x00, 0x00, 0x00, 0x00, 0x00, 0x00, 0x80, 0xFF, 
  0x3F, 0x00, 0x00, 0x00, 0x00, 0x00, 0x00, 0x80, 0xFF, 0x3F, 0x00, 0x00, 
  0x00, 0x00, 0x00, 0x00, 0x00, 0xC0, 0xFF, 0x0F, 0x00, 0x00, 0x00, 0x00, 
  0x00, 0x00, 0x00, 0xFE, 0x3B, 0x00, 0x00, 0x00, 0x00, 0x00, 0x00, 0x00, 
  0xE0, 0xFF, 0x03, 0x00, 0x00, 0x00, 0x00, 0x00, 0x00, 0x00, 0xFC, 0xFF, 
  0x00, 0x00, 0x00, 0x00, 0x00, 0x00, 0x00, 0xF8, 0xFF, 0x00, 0x00, 0x00, 
  0x00, 0x00, 0x00, 0x00, 0x00, 0xF0, 0xEF, 0x01, 0x00, 0x00, 0x00, 0x00, 
  0x00, 0x00, 0xFC, 0x7F, 0x00, 0x00, 0x00, 0x00, 0x00, 0x00, 0x00, 0x00, 
  0xC0, 0xFF, 0x03, 0x00, 0x00, 0x00, 0x00, 0x00, 0x00, 0xFF, 0x1F, 0x00, 
  0x00, 0x00, 0x00, 0x00, 0x00, 0x00, 0x00, 0x80, 0xBF, 0x0F, 0x00, 0x00, 
  0x00, 0x00, 0x00, 0x00, 0xFF, 0x07, 0x00, 0x00, 0x00, 0x00, 0x00, 0x00, 
  0x00, 0x00, 0x00, 0xFE, 0x1F, 0x00, 0x00, 0x00, 0x00, 0x00, 0x80, 0xFF, 
  0x03, 0x00, 0x00, 0x00, 0x00, 0x00, 0x00, 0x00, 0x00, 0x00, 0xFC, 0x3F, 
  0x00, 0x00, 0x00, 0x00, 0x00, 0xC0, 0xFF, 0x01, 0x00, 0x00, 0x00, 0x00, 
  0x00, 0x00, 0x00, 0x00, 0x00, 0xF8, 0x7D, 0x00, 0x00, 0x00, 0x00, 0x00, 
  0xF0, 0xFF, 0x00, 0x00, 0x00, 0x00, 0x00, 0x00, 0x00, 0x00, 0x00, 0x00, 
  0xE0, 0x7F, 0x00, 0x00, 0x00, 0x00, 0x00, 0xF0, 0x7F, 0x00, 0x00, 0x00, 
  0x00, 0x00, 0x00, 0x00, 0x00, 0x00, 0x00, 0xC0, 0xFF, 0x00, 0x00, 0x00, 
  0x00, 0x00, 0xF8, 0x3F, 0x00, 0x00, 0x00, 0x00, 0x00, 0x00, 0x00, 0x00, 
  0x00, 0x00, 0x80, 0xEF, 0x03, 0x00, 0x00, 0x00, 0x00, 0xFC, 0x0F, 0x00, 
  0x00, 0x00, 0x00, 0x00, 0x00, 0x00, 0x00, 0x00, 0x00, 0x00, 0xFF, 0x03, 
  0x00, 0x00, 0x00, 0x00, 0xFE, 0x07, 0x00, 0x00, 0x00, 0x00, 0x00, 0x00, 
  0x00, 0x00, 0x00, 0x00, 0x00, 0xBE, 0x07, 0x00, 0x00, 0x00, 0x00, 0xFF, 
  0x03, 0x00, 0x00, 0x00, 0x00, 0x00, 0x00, 0x00, 0x00, 0x00, 0x00, 0x00, 
  0xFC, 0x0F, 0x00, 0x00, 0x00, 0x80, 0xFF, 0x01, 0x00, 0x00, 0x00, 0x00, 
  0x00, 0x00, 0x00, 0x00, 0x00, 0x00, 0x00, 0xF8, 0x1E, 0x00, 0x00, 0x00, 
  0x80, 0xFF, 0x01, 0x00, 0x00, 0x00, 0x00, 0x00, 0x00, 0x00, 0x00, 0x00, 
  0x00, 0x00, 0xF0, 0x3F, 0x00, 0x00, 0x00, 0xC0, 0xFF, 0x00, 0x00, 0x00, 
  0x00, 0x00, 0x00, 0x00, 0x00, 0x00, 0x00, 0x00, 0x00, 0xE0, 0x3F, 0x00, 
  0x00, 0x00, 0xE0, 0x3F, 0x00, 0x00, 0x00, 0x00, 0x00, 0x00, 0x00, 0x00, 
  0x00, 0x00, 0x00, 0x00, 0xE0, 0x77, 0x00, 0x00, 0x00, 0xF0, 0x3F, 0x00, 
  0x00, 0x00, 0x00, 0x00, 0x00, 0x00, 0x00, 0x00, 0x00, 0x00, 0x00, 0x80, 
  0xFF, 0x00, 0x00, 0x00, 0xF0, 0x1F, 0x00, 0x00, 0x00, 0x00, 0x00, 0x00, 
  0x00, 0x00, 0x00, 0x00, 0x00, 0x00, 0x80, 0xFF, 0x00, 0x00, 0x00, 0xF8, 
  0x0F, 0x00, 0x00, 0x00, 0x00, 0x00, 0x00, 0x00, 0x00, 0x00, 0x00, 0x00, 
  0x00, 0x00, 0xBF, 0x01, 0x00, 0x00, 0xF8, 0x07, 0x00, 0x00, 0x00, 0x00, 
  0x00, 0x00, 0x00, 0x00, 0x00, 0x00, 0x00, 0x00, 0x00, 0xFE, 0x03, 0x00, 
  0x00, 0xFC, 0x07, 0x00, 0x00, 0x00, 0x00, 0x00, 0x00, 0x00, 0x00, 0x00, 
  0x00, 0x00, 0x00, 0x00, 0xFE, 0x07, 0x00, 0x00, 0xFE, 0x03, 0x00, 0x00, 
  0x00, 0x00, 0x00, 0x00, 0x00, 0x00, 0x00, 0x00, 0x00, 0x00, 0x00, 0xF8, 
  0x07, 0x00, 0x00, 0xFE, 0x01, 0x00, 0x00, 0x00, 0x00, 0x00, 0x00, 0x00, 
  0x00, 0x00, 0x00, 0x00, 0x00, 0x00, 0xF8, 0x0B, 0x00, 0x00, 0xFF, 0x01, 
  0x00, 0x00, 0x00, 0x00, 0x00, 0x00, 0x00, 0x00, 0x00, 0x00, 0x00, 0x00, 
  0x00, 0xF0, 0x07, 0x00, 0x00, 0xFF, 0x00, 0x00, 0x00, 0x00, 0x00, 0x00, 
  0x00, 0x00, 0x00, 0x00, 0x00, 0x00, 0x00, 0x00, 0xF0, 0x0F, 0x00, 0x80, 
  0xFF, 0x00, 0x00, 0xB0, 0x01, 0x00, 0x00, 0x00, 0x00, 0x00, 0x00, 0x80, 
  0x1A, 0x00, 0x00, 0xE0, 0x1F, 0x00, 0x80, 0x7F, 0x00, 0x00, 0xFF, 0x1F, 
  0x00, 0x00, 0x00, 0x00, 0x00, 0x00, 0xF0, 0xFF, 0x01, 0x00, 0xE0, 0x3F, 
  0x00, 0xC0, 0x3F, 0x00, 0xE0, 0xFF, 0x1F, 0x00, 0x00, 0x00, 0x00, 0x00, 
  0x00, 0xF0, 0xFF, 0x07, 0x00, 0xE0, 0x3F, 0x00, 0xC0, 0x3F, 0x00, 0xF8, 
  0xFF, 0x1F, 0x00, 0x00, 0x00, 0x00, 0x00, 0x00, 0xF0, 0xFF, 0x3F, 0x00, 
  0xC0, 0x7F, 0x00, 0xE0, 0x1F, 0x00, 0xFC, 0xFF, 0x07, 0x00, 0x00, 0x00, 
  0x00, 0x00, 0x00, 0xE0, 0xFF, 0x7F, 0x00, 0x80, 0x7F, 0x00, 0xE0, 0x1F, 
  0x00, 0xFE, 0xFF, 0x00, 0x00, 0x00, 0x00, 0x00, 0x00, 0x00, 0x00, 0xFF, 
  0xFF, 0x00, 0x80, 0x7F, 0x00, 0xE0, 0x1F, 0x80, 0xFF, 0x7F, 0x00, 0x00, 
  0x00, 0x00, 0x00, 0x00, 0x00, 0x00, 0xF8, 0xFF, 0x01, 0x00, 0xFF, 0x00, 
  0xF0, 0x0F, 0x80, 0xFF, 0x0F, 0x00, 0x00, 0x00, 0x00, 0x00, 0x00, 0x00, 
  0x00, 0xF0, 0xFF, 0x03, 0x00, 0xFF, 0x00, 0xF0, 0x0F, 0xC0, 0xFF, 0x07, 
  0x00, 0x00, 0x00, 0x00, 0x00, 0x00, 0x00, 0x00, 0x80, 0xFF, 0x07, 0x00, 
  0xFE, 0x01, 0xF0, 0x0F, 0xE0, 0xFF, 0x01, 0x00, 0x00, 0x00, 0x00, 0x00, 
  0x00, 0x00, 0x00, 0x80, 0xFF, 0x0F, 0x00, 0xFE, 0x01, 0xF8, 0x07, 0xF0, 
  0xFF, 0x00, 0x00, 0x00, 0x00, 0x00, 0x00, 0x00, 0x00, 0x00, 0x00, 0xFE, 
  0x0F, 0x00, 0xFE, 0x01, 0xF8, 0x03, 0xF0, 0x3F, 0x00, 0x00, 0x00, 0x00, 
  0x00, 0x00, 0x00, 0x00, 0x00, 0x00, 0xFC, 0x1F, 0x00, 0xFC, 0x03, 0xFC, 
  0x03, 0xF8, 0x1F, 0x00, 0x00, 0x00, 0x00, 0x00, 0x00, 0x00, 0x00, 0x00, 
  0x00, 0xF0, 0x1F, 0x00, 0xFC, 0x03, 0xFC, 0x03, 0xF8, 0x0F, 0x00, 0x00, 
  0x00, 0x00, 0x00, 0x00, 0x00, 0x00, 0x00, 0x00, 0xE0, 0x3F, 0x00, 0xF8, 
  0x03, 0xFC, 0x03, 0xF8, 0x07, 0x00, 0x00, 0x00, 0x00, 0x00, 0x00, 0x00, 
  0x00, 0x00, 0x00, 0xC0, 0x3F, 0x00, 0xF8, 0x03, 0xFC, 0x03, 0xF8, 0x03, 
  0x00, 0x00, 0x00, 0x00, 0x00, 0x00, 0x00, 0x00, 0x00, 0x00, 0xC0, 0x3F, 
  0x00, 0xF8, 0x03, 0xFC, 0x01, 0xFC, 0x01, 0x00, 0x00, 0x00, 0x00, 0x00, 
  0x00, 0x00, 0x00, 0x00, 0x00, 0x00, 0x3F, 0x00, 0xF8, 0x07, 0xFE, 0x01, 
  0xFC, 0x00, 0x00, 0x00, 0x00, 0x00, 0x00, 0x00, 0x00, 0x00, 0x00, 0x00, 
  0x00, 0x7E, 0x00, 0xF8, 0x07, 0xFE, 0x01, 0x7C, 0x00, 0x00, 0x00, 0x00, 
  0x00, 0x00, 0x00, 0x00, 0x00, 0x00, 0x00, 0x00, 0x7E, 0x00, 0xF8, 0x07, 
  0xFE, 0x00, 0x7C, 0x00, 0x00, 0x00, 0x00, 0x00, 0x00, 0x00, 0x00, 0x00, 
  0x00, 0x00, 0x00, 0x7C, 0x00, 0xF0, 0x07, 0xFF, 0x00, 0x3C, 0x00, 0xF0, 
  0x7F, 0x00, 0x00, 0x00, 0x00, 0x00, 0x00, 0xFC, 0x1F, 0x00, 0x78, 0x00, 
  0xF0, 0x07, 0xFE, 0x00, 0x1C, 0x00, 0xFE, 0xFF, 0x03, 0x00, 0x00, 0x00, 
  0x00, 0xC0, 0xFF, 0x7F, 0x00, 0x70, 0x00, 0xF0, 0x0F, 0xFF, 0x00, 0x0C, 
  0xC0, 0xFF, 0xFF, 0x0F, 0x00, 0x00, 0x00, 0x00, 0xF0, 0xFF, 0xFF, 0x03, 
  0x30, 0x00, 0xF0, 0x0F, 0x7F, 0x00, 0x00, 0xE0, 0xFF, 0xFF, 0x3F, 0x00, 
  0x00, 0x00, 0x00, 0xFC, 0xFF, 0xFF, 0x0F, 0x00, 0x00, 0xE0, 0x0F, 0xFF, 
  0x00, 0x00, 0xF8, 0xFF, 0xFF, 0xFF, 0x00, 0x00, 0x00, 0x00, 0xFF, 0xFF, 
  0xFF, 0x1F, 0x00, 0x00, 0xE0, 0x0F, 0x7F, 0x00, 0x00, 0xFC, 0xFF, 0xFF, 
  0xFF, 0x01, 0x00, 0x00, 0x80, 0xFF, 0xFF, 0xFF, 0x7F, 0x00, 0x00, 0xE0, 
  0x1F, 0xFF, 0x00, 0x00, 0xFE, 0xFF, 0xFF, 0xFF, 0x03, 0x00, 0x00, 0xC0, 
  0xFF, 0xFF, 0xFF, 0x7F, 0x00, 0x00, 0xE0, 0x0F, 0x7F, 0x00, 0x00, 0xFF, 
  0xFF, 0xFF, 0xFF, 0x07, 0x00, 0x00, 0xE0, 0xFF, 0xFF, 0xFF, 0xFF, 0x00, 
  0x00, 0xE0, 0x1F, 0x7F, 0x00, 0x00, 0xFF, 0xFF, 0xFF, 0xFF, 0x07, 0x00, 
  0x00, 0xE0, 0xFF, 0xFF, 0xFF, 0xFF, 0x01, 0x00, 0xE0, 0x0F, 0x7F, 0x00, 
  0x80, 0xFF, 0xFF, 0xFF, 0xFF, 0x0F, 0x00, 0x00, 0xE0, 0xFF, 0xFF, 0xFF, 
  0xFF, 0x01, 0x00, 0xE0, 0x1F, 0x7F, 0x00, 0x80, 0xFF, 0xFF, 0xFF, 0xFF, 
  0x0F, 0x00, 0x00, 0xF0, 0xFF, 0xFF, 0xFF, 0xFF, 0x01, 0x00, 0xE0, 0x1F, 
  0x7F, 0x00, 0x80, 0xFF, 0xFF, 0xFF, 0xFF, 0x0F, 0x00, 0x00, 0xF0, 0xFF, 
  0xFF, 0xFF, 0xFF, 0x01, 0x00, 0xE0, 0x1F, 0x7F, 0x00, 0x00, 0xFF, 0xFF, 
  0xFF, 0xFF, 0x07, 0x00, 0x00, 0xE0, 0xFF, 0xFF, 0xFF, 0xFF, 0x00, 0x00, 
  0xC0, 0x1F, 0x7F, 0x00, 0x00, 0xFC, 0x7F, 0xBB, 0xFF, 0x01, 0x00, 0x00, 
  0x80, 0xFF, 0xDE, 0xDE, 0x7F, 0x00, 0x00, 0xE0, 0x0F, 0x7F, 0x00, 0x00, 
  0xFC, 0x03, 0x00, 0xFE, 0x01, 0x00, 0x00, 0x00, 0xFE, 0x00, 0x80, 0x3F, 
  0x00, 0x00, 0xC0, 0x1F, 0x7F, 0x00, 0x00, 0xFC, 0x03, 0x00, 0xFE, 0x00, 
  0x00, 0x00, 0x00, 0xFE, 0x00, 0x80, 0x3F, 0x00, 0x00, 0xE0, 0x1F, 0x7F, 
  0x00, 0x00, 0xF8, 0x03, 0x00, 0xFE, 0x00, 0x00, 0x00, 0x00, 0xFF, 0x00, 
  0x80, 0x7F, 0x00, 0x00, 0xE0, 0x1F, 0x7F, 0x00, 0x00, 0xFC, 0x03, 0x00, 
  0xFE, 0x01, 0x00, 0x00, 0x00, 0xFE, 0x00, 0x80, 0x3F, 0x00, 0x00, 0xE0, 
  0x0F, 0x7F, 0x00, 0x00, 0xFC, 0x01, 0x00, 0xFE, 0x00, 0x00, 0x00, 0x00, 
  0xFF, 0x00, 0x80, 0x3F, 0x00, 0x00, 0xE0, 0x1F, 0x7F, 0x00, 0x00, 0xFC, 
  0x03, 0x00, 0xFE, 0x01, 0x00, 0x00, 0x00, 0xFE, 0x00, 0x80, 0x3F, 0x00, 
  0x00, 0xE0, 0x0F, 0x7F, 0x00, 0x00, 0xF8, 0x03, 0x00, 0xFE, 0x00, 0x00, 
  0x00, 0x00, 0xFE, 0x00, 0x80, 0x7F, 0x00, 0x00, 0xE0, 0x1F, 0x7F, 0x00, 
  0x00, 0xFC, 0x03, 0x00, 0xFE, 0x00, 0x00, 0x00, 0x00, 0xFF, 0x00, 0x80, 
  0x7F, 0x00, 0x00, 0xE0, 0x0F, 0x7F, 0x00, 0x00, 0xF8, 0x03, 0x00, 0xFE, 
  0x01, 0x00, 0x00, 0x00, 0xFE, 0x00, 0x80, 0x3F, 0x00, 0x00, 0xE0, 0x0F, 
  0xFF, 0x00, 0x00, 0xFC, 0x03, 0x00, 0xFE, 0x00, 0x00, 0x00, 0x00, 0xFE, 
  0x00, 0x80, 0x3F, 0x00, 0x00, 0xF0, 0x0F, 0xFF, 0x00, 0x00, 0xFC, 0x01, 
  0x00, 0xFE, 0x00, 0x00, 0x00, 0x00, 0xFE, 0x00, 0x80, 0x3F, 0x00, 0x00, 
  0xF0, 0x0F, 0xFE, 0x00, 0x00, 0xFC, 0x03, 0x00, 0xFE, 0x01, 0x00, 0x00, 
  0x00, 0xFF, 0x00, 0x80, 0x3F, 0x00, 0x00, 0xF0, 0x0F, 0xFE, 0x00, 0x00, 
  0xF8, 0x03, 0x00, 0xFE, 0x00, 0x00, 0x00, 0x00, 0xFE, 0x00, 0x80, 0x7F, 
  0x00, 0x00, 0xF0, 0x07, 0xFE, 0x00, 0x00, 0xF8, 0x03, 0x00, 0xFE, 0x00, 
  0x00, 0x00, 0x00, 0xFE, 0x00, 0x80, 0x7F, 0x00, 0x00, 0xF0, 0x07, 0xFE, 
  0x01, 0x00, 0xFC, 0x03, 0x00, 0xFE, 0x01, 0x00, 0x00, 0x00, 0xFE, 0x00, 
  0x80, 0x3F, 0x00, 0x00, 0xF0, 0x07, 0xFE, 0x01, 0x00, 0xFC, 0x03, 0x00, 
  0xFE, 0x00, 0x00, 0x00, 0x00, 0xFE, 0x00, 0x80, 0x3F, 0x00, 0x00, 0xF8, 
  0x07, 0xFE, 0x01, 0x00, 0xFC, 0x01, 0x00, 0xFE, 0x00, 0x00, 0x00, 0x00, 
  0xFF, 0x00, 0x80, 0x3F, 0x00, 0x00, 0xF8, 0x07, 0xFC, 0x03, 0x00, 0xFC, 
  0x03, 0x00, 0xFE, 0x01, 0x00, 0x00, 0x00, 0xFE, 0x00, 0x80, 0x3F, 0x00, 
  0x00, 0xF8, 0x03, 0xFC, 0x03, 0x00, 0xF8, 0x03, 0x00, 0xFE, 0x00, 0xF8, 
  0x1F, 0x00, 0xFE, 0x00, 0x80, 0x7F, 0x00, 0x00, 0xFC, 0x03, 0xFC, 0x03, 
  0x00, 0xFC, 0x03, 0x00, 0xFE, 0x00, 0xFC, 0x7F, 0x00, 0xFE, 0x00, 0x80, 
  0x3F, 0x00, 0x00, 0xF8, 0x03, 0xF8, 0x03, 0x00, 0xF8, 0x03, 0x00, 0xFE, 
  0x01, 0xFF, 0xFF, 0x01, 0xFF, 0x00, 0x80, 0x3F, 0x00, 0x00, 0xFC, 0x03, 
  0xF8, 0x07, 0x00, 0xF8, 0x03, 0x00, 0xFE, 0x81, 0xFF, 0xFF, 0x03, 0xFE, 
  0x00, 0x80, 0x3F, 0x00, 0x00, 0xFC, 0x01, 0xF8, 0x07, 0x00, 0xFC, 0x03, 
  0x00, 0xFE, 0xC0, 0xFF, 0xFF, 0x07, 0xFF, 0x00, 0x80, 0x7F, 0x00, 0x00, 
  0xFE, 0x01, 0xF0, 0x0F, 0x00, 0xFC, 0x03, 0x00, 0xFE, 0xF1, 0xFF, 0xFF, 
  0x1F, 0xFE, 0x00, 0x80, 0x7F, 0x00, 0x00, 0xFE, 0x01, 0xF0, 0x0F, 0x00, 
  0xF8, 0x03, 0x00, 0xFE, 0xF0, 0xFF, 0xFF, 0x1F, 0xFE, 0x00, 0x80, 0x3F, 
  0x00, 0x00, 0xFF, 0x01, 0xF0, 0x0F, 0x00, 0xF8, 0x01, 0x00, 0xFE, 0xF9, 
  0xFF, 0xFF, 0x1F, 0xFF, 0x00, 0x80, 0x3F, 0x00, 0x00, 0xFF, 0x00, 0xE0, 
  0x1F, 0x00, 0xFC, 0x03, 0x00, 0xFE, 0xF8, 0xFF, 0xFF, 0x3F, 0xFE, 0x00, 
  0x80, 0x3F, 0x00, 0x80, 0xFF, 0x00, 0xE0, 0x1F, 0x00, 0xFC, 0x03, 0x00, 
  0xFE, 0xF9, 0xFF, 0xFF, 0x3F, 0xFE, 0x00, 0x80, 0x3F, 0x00, 0x80, 0xFF, 
  0x00, 0xE0, 0x1F, 0x00, 0xFC, 0x03, 0x00, 0xFE, 0xFC, 0xFF, 0xFF, 0x3F, 
  0xFF, 0x00, 0x80, 0x7F, 0x00, 0x80, 0x7F, 0x00, 0xC0, 0x3F, 0x00, 0xF8, 
  0x03, 0x00, 0xFE, 0xFD, 0xFF, 0xFF, 0x7F, 0xFE, 0x00, 0x80, 0x7F, 0x00, 
  0xC0, 0x7F, 0x00, 0xC0, 0x7F, 0x00, 0xFC, 0x03, 0x00, 0xFE, 0xFC, 0xFF, 
  0xFF, 0x7F, 0xFE, 0x00, 0x80, 0x3F, 0x00, 0xE0, 0x3F, 0x00, 0x80, 0x7F, 
  0x00, 0xFC, 0x03, 0x00, 0xFE, 0xFC, 0xFF, 0xFF, 0x7F, 0xFF, 0x00, 0x80, 
  0x3F, 0x00, 0xE0, 0x1F, 0x00, 0x80, 0xFF, 0x00, 0xF8, 0x03, 0x00, 0xFE, 
  0xFD, 0xFF, 0xFF, 0x7F, 0xFE, 0x00, 0x80, 0x3F, 0x00, 0xF0, 0x1F, 0x00, 
  0x00, 0xFF, 0x00, 0xF8, 0x01, 0x00, 0xFE, 0xFC, 0xFF, 0xFF, 0x7F, 0xFE, 
  0x00, 0x80, 0x3F, 0x00, 0xF0, 0x0F, 0x00, 0x00, 0xFF, 0x01, 0xFC, 0x03, 
  0x00, 0xFE, 0xFC, 0xFF, 0xFF, 0x7F, 0xFE, 0x00, 0x80, 0x7F, 0x00, 0xF8, 
  0x0F, 0x00, 0x00, 0xFE, 0x03, 0xFC, 0x03, 0x00, 0xFE, 0xFD, 0xFF, 0xFF, 
  0x7F, 0xFF, 0x00, 0x80, 0x3F, 0x00, 0xFC, 0x07, 0x00, 0x00, 0xFC, 0x07, 
  0xFC, 0x03, 0x00, 0xFE, 0xFC, 0xFF, 0xFF, 0x7F, 0xFE, 0x00, 0x80, 0x3F, 
  0x00, 0xFC, 0x07, 0x00, 0x00, 0xFC, 0x07, 0xFC, 0x01, 0x00, 0xFE, 0xFD, 
  0xFF, 0xFF, 0x7F, 0xFF, 0x00, 0x80, 0x3F, 0x00, 0xFE, 0x03, 0x00, 0x00, 
  0xF8, 0x07, 0xFC, 0x03, 0x00, 0xFE, 0xFC, 0xFF, 0xFF, 0x7F, 0xFE, 0x00, 
  0x80, 0x7F, 0x00, 0xFF, 0x03, 0x00, 0x00, 0xF8, 0x0F, 0xFC, 0x03, 0x00, 
  0xFE, 0xFC, 0xFF, 0xFF, 0x7F, 0xFE, 0x00, 0x80, 0x7F, 0x00, 0xFF, 0x01, 
  0x00, 0x00, 0xF0, 0x1F, 0xF8, 0x03, 0x00, 0xFE, 0xFD, 0xFF, 0xFF, 0x7F, 
  0xFF, 0x00, 0x80, 0x3F, 0x80, 0xFF, 0x01, 0x00, 0x00, 0xF0, 0x3F, 0xFC, 
  0x01, 0x00, 0xFE, 0xFC, 0xFF, 0xFF, 0x7F, 0xFE, 0x00, 0x80, 0x3F, 0xC0, 
  0xFF, 0x00, 0x00, 0x00, 0xE0, 0x7F, 0xFC, 0x03, 0x00, 0xFE, 0xFD, 0xFF, 
  0xFF, 0x7F, 0xFE, 0x00, 0x80, 0x3F, 0xE0, 0x7F, 0x00, 0x00, 0x00, 0xC0, 
  0xFF, 0xF8, 0x03, 0x00, 0xFE, 0xF8, 0xFF, 0xFF, 0x3F, 0xFF, 0x00, 0x80, 
  0x3F, 0xF0, 0x3F, 0x00, 0x00, 0x00, 0x80, 0xFF, 0xFD, 0x03, 0x00, 0xFE, 
  0xF9, 0xFF, 0xFF, 0x3F, 0xFE, 0x00, 0x80, 0x7F, 0xF0, 0x1F, 0x00, 0x00, 
  0x00, 0x00, 0xFF, 0xFD, 0x03, 0x00, 0xFE, 0xF9, 0xFF, 0xFF, 0x3F, 0xFE, 
  0x00, 0x80, 0x3F, 0xFC, 0x1F, 0x00, 0x00, 0x00, 0x00, 0xFF, 0xFF, 0x03, 
  0x00, 0xFE, 0xF0, 0xFF, 0xFF, 0x1F, 0xFF, 0x00, 0x80, 0x7F, 0xFE, 0x0F, 
  0x00, 0x00, 0x00, 0x00, 0xFE, 0xFF, 0x03, 0x00, 0xFE, 0xF1, 0xFF, 0xFF, 
  0x1F, 0xFE, 0x00, 0x80, 0x3F, 0xFE, 0x0F, 0x00, 0x00, 0x00, 0x00, 0xFC, 
  0xFF, 0x03, 0x00, 0xFE, 0xE0, 0xFF, 0xFF, 0x0F, 0xFE, 0x00, 0x80, 0xBF, 
  0xFF, 0x03, 0x00, 0x00, 0x00, 0x00, 0xF8, 0xFF, 0x01, 0x00, 0xFE, 0xC1, 
  0xFF, 0xFF, 0x07, 0xFF, 0x00, 0x80, 0xFF, 0xFF, 0x01, 0x00, 0x00, 0x00, 
  0x00, 0xF0, 0xFF, 0x03, 0x00, 0xFE, 0x80, 0xFF, 0xFF, 0x03, 0xFE, 0x00, 
  0x80, 0xFF, 0xFF, 0x00, 0x00, 0x00, 0x00, 0x00, 0xF0, 0xFF, 0x03, 0x00, 
  0xFE, 0x01, 0xFE, 0xFF, 0x00, 0xFE, 0x00, 0x80, 0xFF, 0xFF, 0x00, 0x00, 
  0x00, 0x00, 0x00, 0xC0, 0xFF, 0x03, 0x00, 0xFE, 0x00, 0xFC, 0x3F, 0x00, 
  0xFF, 0x00, 0x80, 0xFF, 0x3F, 0x00, 0x00, 0x00, 0x00, 0x00, 0x80, 0xFF, 
  0x03, 0x00, 0xFE, 0x01, 0xE0, 0x06, 0x00, 0xFE, 0x00, 0x80, 0xFF, 0x1F, 
  0x00, 0x00, 0x00, 0x00, 0x00, 0x00, 0xFF, 0x07, 0x00, 0xFE, 0x00, 0x00, 
  0x00, 0x00, 0xFE, 0x00, 0x80, 0xFF, 0x1F, 0x00, 0x00, 0x00, 0x00, 0x00, 
  0x00, 0xFE, 0x1F, 0x00, 0xFE, 0x01, 0x00, 0x00, 0x00, 0xFF, 0x00, 0x80, 
  0xFF, 0x07, 0x00, 0x00, 0x00, 0x00, 0x00, 0x00, 0xFC, 0x3F, 0x00, 0xFE, 
  0x00, 0x00, 0x00, 0x00, 0xFE, 0x00, 0xF0, 0xFF, 0x07, 0x00, 0x00, 0x00, 
  0x00, 0x00, 0x00, 0xFC, 0xFF, 0x00, 0xFE, 0x00, 0x00, 0x00, 0x00, 0xFE, 
  0x00, 0xF8, 0xFF, 0x00, 0x00, 0x00, 0x00, 0x00, 0x00, 0x00, 0xF0, 0xFF, 
  0x03, 0xFE, 0x01, 0x00, 0x00, 0x00, 0xFE, 0x00, 0xFE, 0xFF, 0x00, 0x00, 
  0x00, 0x00, 0x00, 0x00, 0x00, 0xE0, 0xFF, 0x07, 0xFE, 0x00, 0x00, 0x00, 
  0x00, 0xFF, 0x00, 0xFF, 0x3F, 0x00, 0x00, 0x00, 0x00, 0x00, 0x00, 0x00, 
  0x80, 0xFF, 0x1F, 0xFE, 0x00, 0x00, 0x00, 0x00, 0xFE, 0xE0, 0xFF, 0x1F, 
  0x00, 0x00, 0x00, 0x00, 0x00, 0x00, 0x00, 0x00, 0xFF, 0xFF, 0xFE, 0x01, 
  0x00, 0x00, 0x00, 0xFE, 0xF8, 0xFF, 0x0F, 0x00, 0x00, 0x00, 0x00, 0x00, 
  0x00, 0x00, 0x00, 0xFE, 0xFF, 0xFF, 0x00, 0x00, 0x00, 0x00, 0xFE, 0xFE, 
  0xFF, 0x03, 0x00, 0x00, 0x00, 0x00, 0x00, 0x00, 0x00, 0x00, 0xF8, 0xFF, 
  0xFF, 0x01, 0x00, 0x00, 0x00, 0xFE, 0xFF, 0xFF, 0x00, 0x00, 0x00, 0x00, 
  0x00, 0x00, 0x00, 0x00, 0x00, 0xE0, 0xFF, 0xFF, 0x07, 0x00, 0x00, 0x00, 
  0xFF, 0xFF, 0x3F, 0x00, 0x00, 0x00, 0x00, 0x00, 0x00, 0x00, 0x00, 0x00, 
  0x80, 0xFF, 0xFF, 0x7F, 0x00, 0x00, 0xD0, 0xFF, 0xFF, 0x1F, 0x00, 0x00, 
  0x00, 0x00, 0x00, 0x00, 0x00, 0x00, 0x00, 0x00, 0xFE, 0xFF, 0xFF, 0x7F, 
  0x62, 0xFF, 0xFF, 0xFF, 0x07, 0x00, 0x00, 0x00, 0x00, 0x00, 0x00, 0x00, 
  0x00, 0x00, 0x00, 0xFC, 0xFF, 0xFF, 0xFF, 0xFF, 0xFF, 0xFF, 0xFF, 0x00, 
  0x00, 0x00, 0x00, 0x00, 0x00, 0x00, 0x00, 0x00, 0x00, 0x00, 0xE0, 0xFF, 
  0xFF, 0xFF, 0xFF, 0xFF, 0xFF, 0x7F, 0x00, 0x00, 0x00, 0x00, 0x00, 0x00, 
  0x00, 0x00, 0x00, 0x00, 0x00, 0x00, 0xFF, 0xFF, 0xFF, 0xFF, 0xFF, 0xFF, 
  0x0F, 0x00, 0x00, 0x00, 0x00, 0x00, 0x00, 0x00, 0x00, 0x00, 0x00, 0x00, 
  0x00, 0xF8, 0xFF, 0xFF, 0xFF, 0xFF, 0xFF, 0x01, 0x00, 0x00, 0x00, 0x00, 
  0x00, 0x00, 0x00, 0x00, 0x00, 0x00, 0x00, 0x00, 0xC0, 0xFF, 0xFF, 0xFF, 
  0xFF, 0x0F, 0x00, 0x00, 0x00, 0x00, 0x00, 0x00, 0x00, 0x00, 0x00, 0x00, 
  0x00, 0x00, 0x00, 0x00, 0xF8, 0xFF, 0xFF, 0xFF, 0x06, 0x00, 0x00, 0x00, 
  0x00, 0x00, 0x00, 0x00, 0x00, 0x00, 0x00, 0x00, 0x00, 0x00, 0x00, 0x00, 
  0xFA, 0xFF, 0x03, 0x00, 0x00, 0x00, 0x00, 0x00, 0x00, 0x00, 0x00, 0x00, 
  0x00, 0x00, 0x00, 0x00, 0x00, 0x00, 0x00, 0x00, 0x04, 0x00, 0x00, 0x00, 
  0x00, 0x00, 0x00, 0x00, 0x00, 0x00, };
