#define pict_12_width 150
#define pict_12_height 150
static char pict_12_bits[] = {
  0x00, 0x00, 0x00, 0x00, 0x00, 0x00, 0x00, 0x00, 0x00, 0x00, 0x00, 0x00, 
  0x00, 0x00, 0x00, 0x00, 0x00, 0x00, 0x00, 0x00, 0x00, 0x00, 0x00, 0x00, 
  0x00, 0x00, 0x00, 0xFA, 0xDF, 0x06, 0x00, 0x00, 0x00, 0x00, 0x00, 0x00, 
  0x00, 0x00, 0x00, 0x00, 0x00, 0x00, 0x00, 0x00, 0x00, 0xF8, 0xFF, 0xFF, 
  0xFF, 0x03, 0x00, 0x00, 0x00, 0x00, 0x00, 0x00, 0x00, 0x00, 0x00, 0x00, 
  0x00, 0x00, 0x00, 0x80, 0xFF, 0xFF, 0xFF, 0xFF, 0x3F, 0x00, 0x00, 0x00, 
  0x00, 0x00, 0x00, 0x00, 0x00, 0x00, 0x00, 0x00, 0x00, 0x00, 0xF8, 0xFF, 
  0xFF, 0xFF, 0xFF, 0xFF, 0x01, 0x00, 0x00, 0x00, 0x00, 0x00, 0x00, 0x00, 
  0x00, 0x00, 0x00, 0x00, 0x00, 0xFE, 0xFF, 0xFF, 0xFF, 0xFF, 0xFF, 0x0F, 
  0x00, 0x00, 0x00, 0x00, 0x00, 0x00, 0x00, 0x00, 0x00, 0x00, 0x00, 0xC0, 
  0xFF, 0xFF, 0xFF, 0xFF, 0xFF, 0xFF, 0x3F, 0x00, 0x00, 0x00, 0x00, 0x00, 
  0x00, 0x00, 0x00, 0x00, 0x00, 0x00, 0xF0, 0xFF, 0xFF, 0xFF, 0xFF, 0xFF, 
  0xFF, 0xFF, 0x00, 0x00, 0x00, 0x00, 0x00, 0x00, 0x00, 0x00, 0x00, 0x00, 
  0x00, 0xFC, 0xFF, 0xFF, 0xBF, 0xB9, 0xFF, 0xFF, 0xFF, 0x03, 0x00, 0x00, 
  0x00, 0x00, 0x00, 0x00, 0x00, 0x00, 0x00, 0x80, 0xFF, 0xFF, 0x1F, 0x00, 
  0x00, 0x80, 0xFF, 0xFF, 0x1F, 0x00, 0x00, 0x00, 0x00, 0x00, 0x00, 0x00, 
  0x00, 0x00, 0xC0, 0xFF, 0xFF, 0x01, 0x00, 0x00, 0x00, 0xF8, 0xFF, 0x7F, 
  0x00, 0x00, 0x00, 0x00, 0x00, 0x00, 0x00, 0x00, 0x00, 0xF0, 0xFF, 0x3F, 
  0x00, 0x00, 0x00, 0x00, 0x80, 0xFF, 0xFF, 0x00, 0x00, 0x00, 0x00, 0x00, 
  0x00, 0x00, 0x00, 0x00, 0xFC, 0xFF, 0x07, 0x00, 0x00, 0x00, 0x00, 0x00, 
  0xFE, 0xFF, 0x03, 0x00, 0x00, 0x00, 0x00, 0x00, 0x00, 0x00, 0x00, 0xFE, 
  0xFF, 0x01, 0x00, 0x00, 0x00, 0x00, 0x00, 0xF0, 0xFF, 0x07, 0x00, 0x00, 
  0x00, 0x00, 0x00, 0x00, 0x00, 0x00, 0xFF, 0x3F, 0x00, 0x00, 0x00, 0x00, 
  0x00, 0x00, 0xC0, 0xFF, 0x1F, 0x00, 0x00, 0x00, 0x00, 0x00, 0x00, 0x00, 
  0xC0, 0xFF, 0x1F, 0x00, 0x00, 0x00, 0x00, 0x00, 0x00, 0x00, 0xFF, 0x3F, 
  0x00, 0x00, 0x00, 0x00, 0x00, 0x00, 0x00, 0xE0, 0xFF, 0x03, 0x00, 0x00, 
  0x00, 0x00, 0x00, 0x00, 0x00, 0xFC, 0xFF, 0x00, 0x00, 0x00, 0x00, 0x00, 
  0x00, 0x00, 0xF8, 0xFF, 0x00, 0x00, 0x00, 0x00, 0x00, 0x00, 0x00, 0x00, 
  0xF0, 0xFF, 0x01, 0x00, 0x00, 0x00, 0x00, 0x00, 0x00, 0xFC, 0x7F, 0x00, 
  0x00, 0x00, 0x00, 0x00, 0x00, 0x00, 0x00, 0xC0, 0xFF, 0x03, 0x00, 0x00, 
  0x00, 0x00, 0x00, 0x00, 0xFE, 0x1F, 0x00, 0x00, 0x00, 0x00, 0x00, 0x00, 
  0x00, 0x00, 0x80, 0xFF, 0x07, 0x00, 0x00, 0x00, 0x00, 0x00, 0x00, 0xFF, 
  0x0F, 0x00, 0x00, 0x00, 0x00, 0x00, 0x00, 0x00, 0x00, 0x00, 0xFF, 0x0F, 
  0x00, 0x00, 0x00, 0x00, 0x00, 0x80, 0xFF, 0x03, 0x00, 0x00, 0x00, 0x00, 
  0x00, 0x00, 0x00, 0x00, 0x00, 0xFC, 0x3F, 0x00, 0x00, 0x00, 0x00, 0x00, 
  0xC0, 0xFF, 0x03, 0x00, 0x00, 0x00, 0x00, 0x00, 0x00, 0x00, 0x00, 0x00, 
  0xF8, 0x3F, 0x00, 0x00, 0x00, 0x00, 0x00, 0xE0, 0xFF, 0x00, 0x00, 0x00, 
  0x00, 0x00, 0x00, 0x00, 0x00, 0x00, 0x00, 0xF0, 0xFF, 0x00, 0x00, 0x00, 
  0x00, 0x00, 0xF0, 0x7F, 0x00, 0x00, 0x00, 0x00, 0x00, 0x00, 0x00, 0x00, 
  0x00, 0x00, 0xE0, 0xFF, 0x00, 0x00, 0x00, 0x00, 0x00, 0xF8, 0x1F, 0x00, 
  0x00, 0x00, 0x00, 0x00, 0x00, 0x00, 0x00, 0x00, 0x00, 0x80, 0xFF, 0x03, 
  0x00, 0x00, 0x00, 0x00, 0xFC, 0x0F, 0x00, 0x00, 0x00, 0x00, 0x00, 0x00, 
  0x00, 0x00, 0x00, 0x00, 0x00, 0xFF, 0x03, 0x00, 0x00, 0x00, 0x00, 0xFE, 
  0x07, 0x00, 0x00, 0x00, 0x00, 0x00, 0x00, 0x00, 0x00, 0x00, 0x00, 0x00, 
  0xFE, 0x07, 0x00, 0x00, 0x00, 0x00, 0xFE, 0x07, 0x00, 0x00, 0x00, 0x00, 
  0x00, 0x00, 0x00, 0x00, 0x00, 0x00, 0x00, 0xFC, 0x0F, 0x00, 0x00, 0x00, 
  0x80, 0xFF, 0x01, 0x00, 0x00, 0x00, 0x00, 0x00, 0x00, 0x00, 0x00, 0x00, 
  0x00, 0x00, 0xF8, 0x1F, 0x00, 0x00, 0x00, 0x80, 0xFF, 0x01, 0x00, 0x00, 
  0x00, 0x00, 0x00, 0x00, 0x00, 0x00, 0x00, 0x00, 0x00, 0xF0, 0x1F, 0x00, 
  0x00, 0x00, 0xC0, 0x7F, 0x00, 0x00, 0x00, 0x00, 0x00, 0x00, 0x00, 0x00, 
  0x00, 0x00, 0x00, 0x00, 0xE0, 0x3F, 0x00, 0x00, 0x00, 0xC0, 0x7F, 0x00, 
  0x00, 0x00, 0x00, 0x00, 0x00, 0x00, 0x00, 0x00, 0x00, 0x00, 0x00, 0xE0, 
  0x7F, 0x00, 0x00, 0x00, 0xF0, 0x3F, 0x00, 0x00, 0x00, 0x00, 0x00, 0x00, 
  0x00, 0x00, 0x00, 0x00, 0x00, 0x00, 0xC0, 0xFF, 0x00, 0x00, 0x00, 0xF0, 
  0x1F, 0x00, 0x00, 0x00, 0x00, 0x00, 0x00, 0x00, 0x00, 0x00, 0x00, 0x00, 
  0x00, 0x80, 0x7F, 0x00, 0x00, 0x00, 0xF8, 0x0F, 0x00, 0x00, 0x00, 0x00, 
  0x00, 0x00, 0x00, 0x00, 0x00, 0x00, 0x00, 0x00, 0x00, 0xFF, 0x01, 0x00, 
  0x00, 0xF8, 0x07, 0x00, 0x00, 0x00, 0x00, 0x00, 0x00, 0x00, 0x00, 0x00, 
  0x00, 0x00, 0x00, 0x00, 0xFE, 0x03, 0x00, 0x00, 0xFC, 0x07, 0x00, 0x00, 
  0x00, 0x00, 0x00, 0x00, 0x00, 0x00, 0x00, 0x00, 0x00, 0x00, 0x00, 0xEC, 
  0x07, 0x00, 0x00, 0xFE, 0x03, 0x00, 0x00, 0x00, 0x00, 0x00, 0x00, 0x00, 
  0x00, 0x00, 0x00, 0x00, 0x00, 0x00, 0xFC, 0x07, 0x00, 0x00, 0xFE, 0x03, 
  0x00, 0x00, 0x00, 0x00, 0x00, 0x00, 0x00, 0x00, 0x00, 0x00, 0x00, 0x00, 
  0x00, 0xF8, 0x07, 0x00, 0x00, 0xFF, 0x01, 0x00, 0x00, 0x00, 0x00, 0x00, 
  0x00, 0x00, 0x00, 0x00, 0x00, 0x00, 0x00, 0x00, 0xF0, 0x0F, 0x00, 0x00, 
  0xFF, 0x00, 0x00, 0x00, 0x00, 0x00, 0x00, 0x00, 0x00, 0x00, 0x00, 0x00, 
  0x00, 0x00, 0x00, 0xF0, 0x0F, 0x00, 0x80, 0xFF, 0x00, 0x00, 0x00, 0x00, 
  0x00, 0x00, 0x00, 0x00, 0x00, 0x00, 0x00, 0x00, 0x00, 0x00, 0xF0, 0x1F, 
  0x00, 0x80, 0x7F, 0x00, 0x00, 0x00, 0x00, 0x00, 0x00, 0x00, 0x00, 0x00, 
  0x00, 0x00, 0x00, 0x00, 0x00, 0xE0, 0x3F, 0x00, 0xC0, 0x3F, 0x00, 0x00, 
  0x00, 0x00, 0x00, 0x00, 0x00, 0x00, 0x00, 0x00, 0x00, 0x00, 0x00, 0x00, 
  0xC0, 0x3F, 0x00, 0xC0, 0x3F, 0x00, 0x00, 0x00, 0x00, 0x00, 0x00, 0x00, 
  0x00, 0x00, 0x00, 0x00, 0x00, 0x00, 0x00, 0xC0, 0x3F, 0x00, 0xE0, 0x3F, 
  0x00, 0x00, 0x00, 0x00, 0x00, 0x00, 0x00, 0x00, 0x00, 0x00, 0x00, 0x00, 
  0x00, 0x00, 0x80, 0x7F, 0x00, 0xE0, 0x1F, 0x00, 0x00, 0x00, 0x00, 0x00, 
  0x00, 0x00, 0x00, 0x00, 0x00, 0x00, 0x00, 0x00, 0x00, 0x80, 0x7F, 0x00, 
  0xE0, 0x1F, 0x00, 0x00, 0x00, 0x00, 0x00, 0x00, 0x00, 0x00, 0x00, 0x00, 
  0x00, 0x00, 0x00, 0x00, 0x00, 0xFF, 0x00, 0xF0, 0x0F, 0x00, 0x00, 0x00, 
  0x00, 0x00, 0x00, 0x00, 0x00, 0x00, 0x00, 0x00, 0x00, 0x00, 0x00, 0x00, 
  0xFF, 0x00, 0xF0, 0x0F, 0x00, 0x00, 0x01, 0x00, 0x00, 0x00, 0x00, 0x00, 
  0x00, 0x00, 0x00, 0x00, 0x18, 0x00, 0x00, 0xFE, 0x01, 0xF0, 0x0F, 0x00, 
  0x80, 0x07, 0x00, 0x00, 0x00, 0x00, 0x00, 0x00, 0x00, 0x00, 0x00, 0x3C, 
  0x00, 0x00, 0xFE, 0x01, 0xF8, 0x07, 0x00, 0x00, 0x1F, 0x00, 0x00, 0x00, 
  0x00, 0x00, 0x00, 0x00, 0x00, 0x80, 0x1F, 0x00, 0x00, 0xFE, 0x01, 0xF8, 
  0x07, 0x00, 0x00, 0xFF, 0x00, 0x00, 0x00, 0x00, 0x00, 0x00, 0x00, 0x00, 
  0xE0, 0x0F, 0x00, 0x00, 0xFC, 0x03, 0xF8, 0x03, 0x00, 0x00, 0xFE, 0x01, 
  0x00, 0x00, 0x00, 0x00, 0x00, 0x00, 0x00, 0xF8, 0x07, 0x00, 0x00, 0xFC, 
  0x03, 0xFC, 0x03, 0x00, 0x00, 0xFC, 0x07, 0x00, 0x00, 0x00, 0x00, 0x00, 
  0x00, 0x00, 0xFC, 0x03, 0x00, 0x00, 0xFC, 0x03, 0xFC, 0x03, 0x00, 0x00, 
  0xF8, 0x3F, 0x00, 0x00, 0x00, 0x00, 0x00, 0x00, 0xC0, 0xFF, 0x01, 0x00, 
  0x00, 0xF8, 0x03, 0xFC, 0x03, 0x00, 0x00, 0xF0, 0xFF, 0x00, 0x00, 0x00, 
  0x00, 0x00, 0x00, 0xE0, 0xFF, 0x00, 0x00, 0x00, 0xF8, 0x03, 0xFC, 0x01, 
  0x00, 0x00, 0xE0, 0xFF, 0x03, 0x00, 0x00, 0x00, 0x00, 0x00, 0xF8, 0x7F, 
  0x00, 0x00, 0x00, 0xF8, 0x07, 0xFE, 0x01, 0x00, 0x00, 0xC0, 0xFF, 0x0F, 
  0x00, 0x00, 0x00, 0x00, 0x00, 0xFE, 0x7F, 0x00, 0x00, 0x00, 0xF8, 0x07, 
  0xFE, 0x01, 0x00, 0x00, 0x80, 0xFF, 0x3F, 0x00, 0x00, 0x00, 0x00, 0xC0, 
  0xFF, 0x1F, 0x00, 0x00, 0x00, 0xF8, 0x07, 0xFE, 0x00, 0x00, 0x00, 0x00, 
  0xFF, 0x7F, 0x00, 0x00, 0x00, 0x00, 0xE0, 0xFF, 0x1F, 0x00, 0x00, 0x00, 
  0xF0, 0x07, 0xFF, 0x00, 0x00, 0x00, 0x00, 0xFF, 0xFF, 0x03, 0x00, 0x00, 
  0x00, 0xF8, 0xFF, 0x0F, 0x00, 0x00, 0x00, 0xF0, 0x0F, 0xFE, 0x00, 0x00, 
  0x00, 0x00, 0xFC, 0xFF, 0x0F, 0x00, 0x00, 0x00, 0xFF, 0xFF, 0x03, 0x00, 
  0x00, 0x00, 0xF0, 0x0F, 0xFF, 0x00, 0x00, 0x00, 0x00, 0xF8, 0xFF, 0x1F, 
  0x00, 0x00, 0x80, 0xFF, 0xFF, 0x03, 0x00, 0x00, 0x00, 0xE0, 0x0F, 0x7F, 
  0x00, 0x00, 0x00, 0x00, 0xF8, 0xFF, 0x3F, 0x00, 0x00, 0xC0, 0xFF, 0xFF, 
  0x01, 0x00, 0x00, 0x00, 0xF0, 0x0F, 0xFF, 0x00, 0x00, 0x00, 0x00, 0xF0, 
  0xFF, 0x3F, 0x00, 0x00, 0xC0, 0xFF, 0xFF, 0x00, 0x00, 0x00, 0x00, 0xE0, 
  0x0F, 0x7F, 0x00, 0x00, 0x00, 0x00, 0xE0, 0xFF, 0x7F, 0x00, 0x00, 0xC0, 
  0xFF, 0xBF, 0x00, 0x00, 0x00, 0x00, 0xE0, 0x1F, 0xFF, 0x00, 0x00, 0x00, 
  0x00, 0xE0, 0xFF, 0x7F, 0x00, 0x00, 0xE0, 0xFF, 0x5F, 0x00, 0x00, 0x00, 
  0x00, 0xE0, 0x0F, 0x7F, 0x00, 0x00, 0x00, 0x00, 0xE0, 0xFF, 0x7F, 0x00, 
  0x00, 0xC0, 0xFF, 0x7F, 0x00, 0x00, 0x00, 0x00, 0xE0, 0x1F, 0x7F, 0x00, 
  0x00, 0x00, 0x00, 0xE0, 0xFF, 0x3F, 0x00, 0x00, 0xC0, 0xFF, 0x77, 0x00, 
  0x00, 0x00, 0x00, 0xE0, 0x0F, 0x7F, 0x00, 0x00, 0x00, 0x00, 0xC0, 0xFF, 
  0x3F, 0x00, 0x00, 0x80, 0xFF, 0x7F, 0x00, 0x00, 0x00, 0x00, 0xE0, 0x1F, 
  0x7F, 0x00, 0x00, 0x00, 0x00, 0xE0, 0xFF, 0x1F, 0x00, 0x00, 0x00, 0xFF, 
  0x7F, 0x00, 0x00, 0x00, 0x00, 0xE0, 0x1F, 0x7F, 0x00, 0x00, 0x00, 0x00, 
  0xE0, 0xFF, 0x07, 0x00, 0x00, 0x00, 0xFE, 0xFF, 0x00, 0x00, 0x00, 0x00, 
  0xE0, 0x1F, 0x7F, 0x00, 0x00, 0x00, 0x00, 0xE0, 0xFF, 0x03, 0x00, 0x00, 
  0x00, 0xF8, 0xFF, 0x00, 0x00, 0x00, 0x00, 0xE0, 0x0F, 0x7F, 0x00, 0x00, 
  0x00, 0x00, 0xF0, 0xFF, 0x01, 0x00, 0x00, 0x00, 0xB0, 0xFF, 0x01, 0x00, 
  0x00, 0x00, 0xC0, 0x1F, 0x7F, 0x00, 0x00, 0x00, 0x00, 0xF0, 0x7F, 0x00, 
  0x00, 0x00, 0x00, 0xE0, 0xFF, 0x01, 0x00, 0x00, 0x00, 0xE0, 0x1F, 0x7F, 
  0x00, 0x00, 0x00, 0x00, 0xF8, 0x3F, 0x00, 0x00, 0x00, 0x00, 0xC0, 0xFF, 
  0x03, 0x00, 0x00, 0x00, 0xC0, 0x1F, 0x7F, 0x00, 0x00, 0x00, 0x00, 0xFC, 
  0x1F, 0x00, 0x00, 0x00, 0x00, 0x00, 0xFF, 0x03, 0x00, 0x00, 0x00, 0xE0, 
  0x0F, 0x7F, 0x00, 0x00, 0x00, 0x00, 0xFC, 0x07, 0x00, 0x00, 0x00, 0x00, 
  0x00, 0xFE, 0x03, 0x00, 0x00, 0x00, 0xE0, 0x1F, 0x7F, 0x00, 0x00, 0x00, 
  0x00, 0xFE, 0x03, 0x00, 0x00, 0x00, 0x00, 0x00, 0xF8, 0x07, 0x00, 0x00, 
  0x00, 0xE0, 0x1F, 0x7F, 0x00, 0x00, 0x00, 0x00, 0xFE, 0x01, 0x00, 0x00, 
  0x00, 0x00, 0x00, 0xF8, 0x07, 0x00, 0x00, 0x00, 0xE0, 0x0F, 0x7F, 0x00, 
  0x00, 0x00, 0x00, 0x7F, 0x00, 0x00, 0x00, 0x00, 0x00, 0x00, 0xE0, 0x1F, 
  0x00, 0x00, 0x00, 0xE0, 0x1F, 0x7F, 0x00, 0x00, 0x00, 0x00, 0x3F, 0x00, 
  0x00, 0x00, 0x00, 0x00, 0x00, 0xC0, 0x1F, 0x00, 0x00, 0x00, 0xE0, 0x0F, 
  0x7F, 0x00, 0x00, 0x00, 0x80, 0x1F, 0x00, 0x00, 0x00, 0x00, 0x00, 0x00, 
  0x00, 0x1F, 0x00, 0x00, 0x00, 0xE0, 0x0F, 0xFF, 0x00, 0x00, 0x00, 0x80, 
  0x0F, 0x00, 0x00, 0x00, 0x00, 0x00, 0x00, 0x00, 0x3E, 0x00, 0x00, 0x00, 
  0xE0, 0x0F, 0xFF, 0x00, 0x00, 0x00, 0xC0, 0x03, 0x00, 0x00, 0x00, 0x00, 
  0x00, 0x00, 0x00, 0x7C, 0x00, 0x00, 0x00, 0xF0, 0x0F, 0xFE, 0x00, 0x00, 
  0x00, 0xC0, 0x01, 0x00, 0x00, 0x00, 0x00, 0x00, 0x00, 0x00, 0x78, 0x00, 
  0x00, 0x00, 0xF0, 0x0F, 0xFF, 0x00, 0x00, 0x00, 0xC0, 0x00, 0x00, 0x00, 
  0x00, 0x00, 0x00, 0x00, 0x00, 0x60, 0x00, 0x00, 0x00, 0xF0, 0x0F, 0xFE, 
  0x00, 0x00, 0x00, 0x00, 0x00, 0x00, 0x00, 0x00, 0x00, 0x00, 0x00, 0x00, 
  0x00, 0x00, 0x00, 0x00, 0xF0, 0x07, 0xFE, 0x01, 0x00, 0x00, 0x00, 0x00, 
  0x00, 0x00, 0x00, 0x00, 0x00, 0x00, 0x00, 0x00, 0x00, 0x00, 0x00, 0xF0, 
  0x07, 0xFE, 0x01, 0x00, 0x00, 0x00, 0x00, 0x00, 0x00, 0x00, 0x00, 0x00, 
  0x00, 0x00, 0x00, 0x00, 0x00, 0x00, 0xF8, 0x07, 0xFE, 0x01, 0x00, 0x00, 
  0x00, 0x00, 0x00, 0x00, 0x00, 0x00, 0x00, 0x00, 0x00, 0x00, 0x00, 0x00, 
  0x00, 0xF8, 0x07, 0xFC, 0x01, 0x00, 0x00, 0x00, 0x00, 0x00, 0x00, 0x00, 
  0x00, 0x00, 0x00, 0x00, 0x00, 0x00, 0x00, 0x00, 0xF8, 0x03, 0xFC, 0x03, 
  0x00, 0x00, 0x00, 0x00, 0x00, 0x00, 0x00, 0x00, 0x00, 0x00, 0x00, 0x00, 
  0x00, 0x00, 0x00, 0xF8, 0x03, 0xF8, 0x03, 0x00, 0x00, 0x00, 0x00, 0x00, 
  0x00, 0x00, 0x00, 0x00, 0x00, 0x00, 0x00, 0x00, 0x00, 0x00, 0xFC, 0x03, 
  0xFC, 0x07, 0x00, 0x00, 0xE0, 0x00, 0x00, 0x00, 0x00, 0x00, 0x00, 0x00, 
  0x00, 0x80, 0x05, 0x00, 0x00, 0xFC, 0x03, 0xF8, 0x07, 0x00, 0x00, 0xF0, 
  0x0F, 0x00, 0x00, 0x00, 0x00, 0x00, 0x00, 0x00, 0xF8, 0x0F, 0x00, 0x00, 
  0xFC, 0x01, 0xF8, 0x07, 0x00, 0x00, 0xF0, 0xFF, 0x01, 0x00, 0x00, 0x00, 
  0x00, 0x00, 0x80, 0xFF, 0x0F, 0x00, 0x00, 0xFE, 0x01, 0xF0, 0x07, 0x00, 
  0x00, 0xF8, 0xFF, 0x1F, 0x00, 0x00, 0x00, 0x00, 0x00, 0xF8, 0xFF, 0x0F, 
  0x00, 0x00, 0xFE, 0x01, 0xF0, 0x0F, 0x00, 0x00, 0xF0, 0xFF, 0xFF, 0x57, 
  0x00, 0x00, 0x00, 0xF4, 0xFF, 0xFF, 0x0F, 0x00, 0x00, 0xFE, 0x01, 0xF0, 
  0x0F, 0x00, 0x00, 0xF8, 0xFF, 0xFF, 0xFF, 0xFF, 0xFF, 0xFF, 0xFF, 0xFF, 
  0xFF, 0x1F, 0x00, 0x00, 0xFF, 0x00, 0xE0, 0x1F, 0x00, 0x00, 0xF8, 0xFF, 
  0xFF, 0xFF, 0xFF, 0xFF, 0xFF, 0xFF, 0xFF, 0xFF, 0x0F, 0x00, 0x00, 0xFF, 
  0x00, 0xE0, 0x1F, 0x00, 0x00, 0xF0, 0xFF, 0xFF, 0xFF, 0xFF, 0xFF, 0xFF, 
  0xFF, 0xFF, 0xFF, 0x0F, 0x00, 0x80, 0xFF, 0x00, 0xE0, 0x1F, 0x00, 0x00, 
  0xF0, 0xFF, 0xFF, 0xFF, 0xFF, 0xFF, 0xFF, 0xFF, 0xFF, 0xFF, 0x0F, 0x00, 
  0x80, 0x7F, 0x00, 0xC0, 0x3F, 0x00, 0x00, 0xF0, 0xFF, 0xFF, 0xFF, 0xFF, 
  0xFF, 0xFF, 0xFF, 0xFF, 0xFF, 0x0F, 0x00, 0xC0, 0x7F, 0x00, 0xC0, 0x7F, 
  0x00, 0x00, 0xE0, 0xFF, 0xFF, 0xFF, 0xFF, 0xFF, 0xFF, 0xFF, 0xFF, 0xFF, 
  0x07, 0x00, 0xC0, 0x3F, 0x00, 0x80, 0x7F, 0x00, 0x00, 0xE0, 0xFF, 0xFF, 
  0xFF, 0xFF, 0xFF, 0xFF, 0xFF, 0xFF, 0xFF, 0x07, 0x00, 0xE0, 0x1F, 0x00, 
  0x80, 0xFF, 0x00, 0x00, 0xE0, 0xFF, 0xFF, 0x7F, 0xA1, 0xAA, 0x24, 0xFD, 
  0xFF, 0xFF, 0x03, 0x00, 0xF0, 0x1F, 0x00, 0x00, 0xFF, 0x00, 0x00, 0xC0, 
  0xFF, 0xFF, 0x7F, 0x00, 0x00, 0x00, 0xFC, 0xFF, 0xFF, 0x03, 0x00, 0xF0, 
  0x0F, 0x00, 0x00, 0xFF, 0x01, 0x00, 0xC0, 0xFF, 0xFF, 0x7F, 0x00, 0x00, 
  0x00, 0xFC, 0xFF, 0xFF, 0x03, 0x00, 0xF0, 0x0F, 0x00, 0x00, 0xFE, 0x03, 
  0x00, 0x80, 0xFF, 0xFF, 0x7F, 0x00, 0x00, 0x00, 0xFE, 0xFF, 0xFF, 0x01, 
  0x00, 0xF8, 0x07, 0x00, 0x00, 0xFC, 0x03, 0x00, 0x80, 0xFF, 0xFF, 0x7F, 
  0x00, 0x00, 0x00, 0xFC, 0xFF, 0xFF, 0x00, 0x00, 0xFC, 0x07, 0x00, 0x00, 
  0xBC, 0x07, 0x00, 0x88, 0xFF, 0xFF, 0x7F, 0x00, 0x00, 0x00, 0xFC, 0xFF, 
  0xFF, 0x00, 0x00, 0xFE, 0x07, 0x00, 0x20, 0xD8, 0x06, 0x00, 0x00, 0xFF, 
  0xFF, 0x7F, 0x00, 0x00, 0x00, 0xFE, 0xFF, 0x7F, 0x00, 0x00, 0xFE, 0x03, 
  0x00, 0x00, 0xB0, 0x2F, 0x08, 0x00, 0xFE, 0xFF, 0x7F, 0x00, 0x00, 0x00, 
  0xFC, 0xFF, 0x7F, 0x00, 0x00, 0xFF, 0x01, 0x00, 0x00, 0xB0, 0x1B, 0x00, 
  0x00, 0xFC, 0xFF, 0x7F, 0x00, 0x00, 0x00, 0xFC, 0xFF, 0x3F, 0x00, 0x80, 
  0xFF, 0x00, 0x00, 0x00, 0xF0, 0x3E, 0x00, 0x00, 0xF8, 0xFF, 0x7F, 0x00, 
  0x00, 0x00, 0xFC, 0xFF, 0x1F, 0x00, 0xC0, 0xFF, 0x00, 0x00, 0x00, 0xE8, 
  0x27, 0x00, 0x00, 0xF0, 0xFF, 0x7F, 0x00, 0x00, 0x00, 0xFC, 0xFF, 0x0F, 
  0x00, 0xC0, 0x7F, 0x00, 0x00, 0x00, 0xC0, 0x7F, 0x00, 0x00, 0xE0, 0xFF, 
  0x7F, 0x00, 0x00, 0x00, 0xFE, 0xFF, 0x07, 0x00, 0xE0, 0x3F, 0x00, 0x00, 
  0x40, 0x80, 0xEF, 0x41, 0x40, 0xE0, 0xFF, 0x7F, 0x00, 0x00, 0x00, 0xFE, 
  0xFF, 0x03, 0x00, 0xF0, 0x3F, 0x00, 0x00, 0x00, 0x80, 0xFF, 0x01, 0x00, 
  0x80, 0xFF, 0x7F, 0x00, 0x00, 0x00, 0xFC, 0xFF, 0x01, 0x00, 0xF8, 0x1F, 
  0x00, 0x00, 0x00, 0x00, 0xFF, 0x07, 0x00, 0x00, 0xFF, 0x7F, 0x00, 0x00, 
  0x00, 0xFC, 0xFF, 0x00, 0x00, 0xFC, 0x0F, 0x00, 0x00, 0x00, 0x00, 0xFE, 
  0x07, 0x00, 0x00, 0xFE, 0x7F, 0x00, 0x00, 0x00, 0xFC, 0x3F, 0x00, 0x00, 
  0xFE, 0x07, 0x00, 0x00, 0x00, 0x00, 0xFC, 0x1F, 0x00, 0x00, 0xFC, 0x7F, 
  0x00, 0x00, 0x00, 0xFC, 0x1F, 0x00, 0x00, 0xFF, 0x07, 0x00, 0x00, 0x00, 
  0x00, 0xF8, 0x1F, 0x00, 0x00, 0xF0, 0x7F, 0x00, 0x00, 0x00, 0xFE, 0x0F, 
  0x00, 0x80, 0xFF, 0x01, 0x00, 0x00, 0x00, 0x00, 0xF0, 0x7F, 0x00, 0x08, 
  0xC0, 0x7F, 0x00, 0x00, 0x00, 0xFE, 0x03, 0x00, 0xE0, 0xFF, 0x01, 0x00, 
  0x00, 0x00, 0x00, 0xE0, 0xFF, 0x00, 0x00, 0x80, 0x7F, 0x00, 0x00, 0x00, 
  0xFC, 0x01, 0x00, 0xE0, 0xFF, 0x00, 0x00, 0x00, 0x00, 0x00, 0xC0, 0xFF, 
  0x01, 0x00, 0x80, 0x7F, 0x00, 0x00, 0x00, 0xFC, 0x01, 0x00, 0xF8, 0x7F, 
  0x00, 0x00, 0x00, 0x00, 0x00, 0x80, 0xFF, 0x07, 0x00, 0x80, 0x7F, 0x00, 
  0x00, 0x00, 0xFC, 0x01, 0x00, 0xFE, 0x1F, 0x00, 0x00, 0x00, 0x00, 0x00, 
  0x00, 0xFF, 0x0F, 0x00, 0x80, 0x7F, 0x00, 0x00, 0x00, 0xFE, 0x01, 0x00, 
  0xFF, 0x1F, 0x00, 0x00, 0x00, 0x00, 0x00, 0x00, 0xFE, 0x3F, 0x00, 0x00, 
  0x7F, 0x00, 0x00, 0x00, 0xFC, 0x01, 0x80, 0xFF, 0x0F, 0x00, 0x00, 0x00, 
  0x00, 0x00, 0x00, 0xFC, 0x7F, 0x00, 0x81, 0x7F, 0x00, 0x00, 0x00, 0xFC, 
  0x01, 0xE0, 0xFF, 0x03, 0x00, 0x00, 0x00, 0x00, 0x00, 0x00, 0xF8, 0xFF, 
  0x00, 0x00, 0x7E, 0x00, 0x00, 0x00, 0xFC, 0x01, 0xF0, 0xFF, 0x01, 0x00, 
  0x00, 0x00, 0x00, 0x00, 0x00, 0xF0, 0xFF, 0x07, 0x80, 0x7B, 0x00, 0x00, 
  0x00, 0xFE, 0x01, 0xFC, 0xFF, 0x00, 0x00, 0x00, 0x00, 0x00, 0x00, 0x00, 
  0xC0, 0xFF, 0x0F, 0x80, 0x7E, 0x00, 0x00, 0x00, 0xFC, 0x01, 0xFF, 0x7F, 
  0x00, 0x00, 0x00, 0x00, 0x00, 0x00, 0x00, 0x00, 0xFF, 0x7F, 0x80, 0x6F, 
  0x00, 0x00, 0x00, 0xFC, 0xE1, 0xFF, 0x1F, 0x00, 0x00, 0x00, 0x00, 0x00, 
  0x00, 0x00, 0x00, 0xFE, 0xFF, 0x01, 0x7F, 0x00, 0x00, 0x00, 0xFC, 0xF9, 
  0xFF, 0x07, 0x00, 0x00, 0x00, 0x00, 0x00, 0x00, 0x00, 0x00, 0xFC, 0xFF, 
  0x8F, 0x35, 0x00, 0x00, 0x00, 0xFE, 0xFF, 0xFF, 0x03, 0x00, 0x00, 0x00, 
  0x00, 0x00, 0x00, 0x00, 0x00, 0xF0, 0xFF, 0xBF, 0x6F, 0x02, 0x00, 0x00, 
  0xFC, 0xFF, 0xFF, 0x01, 0x00, 0x00, 0x00, 0x00, 0x00, 0x80, 0x08, 0x00, 
  0xE0, 0xFF, 0xFF, 0x3F, 0x00, 0x00, 0x00, 0xFC, 0xFF, 0x7F, 0x00, 0x00, 
  0x00, 0x00, 0x00, 0x40, 0x00, 0x00, 0x00, 0x80, 0xFF, 0xFF, 0x7F, 0x00, 
  0x00, 0x00, 0xFC, 0xFF, 0x1F, 0x00, 0x00, 0x00, 0x00, 0x00, 0x00, 0x00, 
  0x80, 0x00, 0x00, 0xFE, 0xFF, 0x7F, 0x00, 0x00, 0x00, 0xFC, 0xFF, 0x07, 
  0x00, 0x00, 0x00, 0x00, 0x00, 0x00, 0x00, 0x00, 0x00, 0x00, 0xF8, 0xFF, 
  0x7F, 0x00, 0x00, 0x00, 0xFE, 0xFF, 0x01, 0x00, 0x00, 0x00, 0x00, 0x00, 
  0x00, 0x00, 0x00, 0x00, 0x00, 0xC0, 0xFF, 0x7F, 0x00, 0x00, 0x00, 0xFE, 
  0x3F, 0x00, 0x00, 0x00, 0x00, 0x00, 0x00, 0x01, 0x00, 0x00, 0x00, 0x00, 
  0x00, 0xFF, 0x7F, 0x00, 0x00, 0x00, 0xFC, 0x0F, 0x00, 0x00, 0x00, 0x00, 
  0x00, 0x00, 0x00, 0x00, 0x00, 0x20, 0x00, 0x00, 0xF0, 0x7F, 0x00, 0x00, 
  0x00, 0xFC, 0x03, 0x00, 0x00, 0x00, 0x00, 0x00, 0x00, 0x00, 0x00, 0x00, 
  0x00, 0x00, 0x00, 0x80, 0x7F, 0x00, 0x01, 0x00, 0xFC, 0x01, 0x00, 0x00, 
  0x00, 0x00, 0x00, 0x00, 0x00, 0x00, 0x00, 0x00, 0x00, 0x00, 0x80, 0x7F, 
  0x00, 0x00, 0x00, 0xFC, 0x01, 0x00, 0x00, 0x00, 0x00, 0x00, 0x00, 0x00, 
  0x00, 0x00, 0x00, 0x00, 0x00, 0x80, 0x7F, 0x00, 0x00, 0x00, 0xFE, 0x01, 
  0x00, 0x00, 0x00, 0x00, 0x00, 0x00, };
