#define pict_61_width 150
#define pict_61_height 150
static char pict_61_bits[] = {
  0x00, 0x00, 0x00, 0x00, 0x00, 0x00, 0x00, 0x40, 0xFF, 0xFF, 0x0B, 0x00, 
  0x00, 0x00, 0x00, 0x00, 0x00, 0x00, 0x00, 0x00, 0x00, 0x00, 0x00, 0x00, 
  0x00, 0x00, 0xFE, 0xFF, 0xFF, 0xFF, 0x01, 0x00, 0x00, 0x00, 0x00, 0x00, 
  0x00, 0x00, 0x00, 0x00, 0x00, 0x00, 0x00, 0x00, 0xD0, 0xFF, 0xFF, 0xFF, 
  0xFF, 0x2F, 0x00, 0x00, 0x00, 0x00, 0x00, 0x00, 0x00, 0x00, 0x00, 0x00, 
  0x00, 0x00, 0x00, 0xFC, 0xFF, 0xFF, 0xFF, 0xFF, 0x7F, 0x00, 0x00, 0x00, 
  0x00, 0x00, 0x00, 0x00, 0x00, 0x00, 0x00, 0x00, 0x00, 0x80, 0xFF, 0xFF, 
  0xFF, 0xFF, 0xFF, 0xFF, 0x05, 0x00, 0x00, 0x00, 0x00, 0x00, 0x00, 0x00, 
  0x00, 0x00, 0x00, 0x00, 0xF0, 0xFF, 0xFF, 0xFF, 0xFF, 0xFF, 0x7F, 0x3F, 
  0x00, 0x00, 0x00, 0x00, 0x00, 0x00, 0x00, 0x00, 0x00, 0x00, 0x00, 0xFC, 
  0xFF, 0xFF, 0xFF, 0xFF, 0xFF, 0xAF, 0xFF, 0x00, 0x00, 0x00, 0x00, 0x00, 
  0x00, 0x00, 0x00, 0x00, 0x00, 0x00, 0xFF, 0xFF, 0xFF, 0x23, 0x88, 0xFE, 
  0xFF, 0xFF, 0x03, 0x00, 0x00, 0x00, 0x00, 0x00, 0x00, 0x00, 0x00, 0x00, 
  0xC0, 0xFF, 0xFF, 0x0F, 0x00, 0x00, 0xC0, 0xAF, 0xFF, 0x0F, 0x00, 0x00, 
  0x00, 0x00, 0x00, 0x00, 0x00, 0x00, 0x00, 0xF0, 0xFF, 0xFF, 0x00, 0x00, 
  0x00, 0x00, 0xFC, 0xFF, 0x3F, 0x00, 0x00, 0x00, 0x00, 0x00, 0x00, 0x00, 
  0x00, 0x00, 0xF8, 0xFF, 0x0F, 0x00, 0x00, 0x00, 0x00, 0xC0, 0xFF, 0x7F, 
  0x00, 0x00, 0x00, 0x00, 0x00, 0x00, 0x00, 0x00, 0x00, 0xFE, 0xFF, 0x03, 
  0x00, 0x00, 0x00, 0x00, 0x80, 0xFF, 0xFF, 0x01, 0x00, 0x00, 0x00, 0x00, 
  0x00, 0x00, 0x00, 0x80, 0xFF, 0x7F, 0x00, 0x00, 0x00, 0x00, 0x00, 0x02, 
  0xF8, 0xFF, 0x03, 0x00, 0x00, 0x00, 0x00, 0x00, 0x00, 0x00, 0xC0, 0xFF, 
  0x0F, 0x00, 0x00, 0x00, 0x00, 0x00, 0x00, 0xE0, 0xFF, 0x0F, 0x00, 0x00, 
  0x00, 0x00, 0x00, 0x00, 0x00, 0xF0, 0xFF, 0x03, 0x00, 0x00, 0x00, 0x00, 
  0x00, 0x00, 0x80, 0xFF, 0x3F, 0x00, 0x00, 0x00, 0x00, 0x00, 0x00, 0x00, 
  0xF8, 0xFF, 0x01, 0x00, 0x00, 0x00, 0x00, 0x00, 0x00, 0x00, 0xFE, 0x3F, 
  0x00, 0x00, 0x00, 0x00, 0x00, 0x00, 0x00, 0xFC, 0x7F, 0x00, 0x00, 0x00, 
  0x00, 0x00, 0x00, 0x00, 0x00, 0xF8, 0x7F, 0x00, 0x00, 0x00, 0x00, 0x00, 
  0x00, 0x00, 0xFE, 0x1F, 0x00, 0x00, 0x00, 0x00, 0x00, 0x00, 0x00, 0x00, 
  0xF0, 0xFF, 0x01, 0x00, 0x00, 0x00, 0x00, 0x00, 0x80, 0xFF, 0x0F, 0x00, 
  0x00, 0x00, 0x00, 0x00, 0x00, 0x00, 0x00, 0xC0, 0x7F, 0x03, 0x00, 0x00, 
  0x00, 0x00, 0x00, 0xC0, 0xFF, 0x03, 0x00, 0x00, 0x00, 0x00, 0x00, 0x00, 
  0x00, 0x00, 0x00, 0xFF, 0x05, 0x00, 0x00, 0x00, 0x00, 0x00, 0xE0, 0xFF, 
  0x01, 0x00, 0x00, 0x00, 0x00, 0x00, 0x00, 0x00, 0x00, 0x00, 0xFE, 0x0A, 
  0x00, 0x00, 0x00, 0x00, 0x00, 0xE0, 0xFF, 0x00, 0x00, 0x00, 0x00, 0x00, 
  0x00, 0x00, 0x00, 0x00, 0x00, 0xFC, 0x1F, 0x00, 0x00, 0x00, 0x00, 0x00, 
  0xF0, 0x3F, 0x00, 0x00, 0x00, 0x00, 0x00, 0x00, 0x00, 0x00, 0x00, 0x00, 
  0xF8, 0x3F, 0x00, 0x00, 0x00, 0x00, 0x00, 0xFC, 0x1F, 0x00, 0x00, 0x00, 
  0x00, 0x00, 0x00, 0x00, 0x00, 0x00, 0x00, 0xF0, 0xD9, 0x00, 0x00, 0x00, 
  0x00, 0x00, 0xFC, 0x0F, 0x00, 0x00, 0x00, 0x00, 0x00, 0x00, 0x00, 0x00, 
  0x10, 0x00, 0xE0, 0x7F, 0x00, 0x00, 0x00, 0x00, 0x00, 0xFF, 0x07, 0x00, 
  0x00, 0x00, 0x00, 0x00, 0x00, 0x00, 0x40, 0x00, 0x00, 0x80, 0xEB, 0x00, 
  0x00, 0x00, 0x00, 0x80, 0xFF, 0x03, 0x00, 0x00, 0x00, 0x00, 0x00, 0x00, 
  0x00, 0x00, 0x00, 0x00, 0x00, 0x5F, 0x03, 0x00, 0x00, 0x00, 0x80, 0xFF, 
  0x01, 0x00, 0x00, 0x00, 0x00, 0x00, 0x00, 0x00, 0x00, 0x00, 0x00, 0x00, 
  0xFE, 0x05, 0x00, 0x00, 0x00, 0xC0, 0xFF, 0x00, 0x00, 0x00, 0x00, 0x00, 
  0x00, 0x00, 0x00, 0x00, 0x00, 0x00, 0x00, 0xBC, 0x05, 0x00, 0x00, 0x00, 
  0xE0, 0x7F, 0x00, 0x00, 0x00, 0x00, 0x00, 0x00, 0x00, 0x00, 0x00, 0x00, 
  0x00, 0x00, 0xFC, 0x0F, 0x00, 0x00, 0x00, 0xE0, 0x3F, 0x00, 0x00, 0x00, 
  0x00, 0x00, 0x00, 0x00, 0x00, 0x00, 0x00, 0x00, 0x00, 0xF0, 0x15, 0x00, 
  0x00, 0x00, 0xF0, 0x3F, 0x00, 0x00, 0x00, 0x00, 0x00, 0x00, 0x00, 0x00, 
  0x00, 0x00, 0x00, 0x00, 0xF0, 0x3F, 0x00, 0x02, 0x00, 0xF8, 0x1F, 0x00, 
  0x00, 0x00, 0x00, 0x00, 0x00, 0x00, 0x00, 0x00, 0x00, 0x00, 0x00, 0xE0, 
  0x7F, 0x00, 0x00, 0x00, 0xFC, 0x0F, 0x00, 0x00, 0x00, 0x00, 0x00, 0x00, 
  0x00, 0x00, 0x00, 0x00, 0x00, 0x00, 0xC0, 0x7F, 0x00, 0x00, 0x00, 0xFC, 
  0x07, 0x00, 0x00, 0x00, 0x00, 0x00, 0x00, 0x00, 0x00, 0x08, 0x00, 0x00, 
  0x00, 0x80, 0xFF, 0x00, 0x00, 0x00, 0xFE, 0x03, 0x00, 0x00, 0x00, 0x00, 
  0x00, 0x00, 0x00, 0x00, 0x00, 0x04, 0x00, 0x00, 0x00, 0xFF, 0x01, 0x00, 
  0x00, 0xFF, 0x01, 0x00, 0x00, 0x00, 0x00, 0x00, 0x00, 0x00, 0x00, 0x00, 
  0xFE, 0x03, 0x00, 0x00, 0xFF, 0x01, 0x08, 0x00, 0xFF, 0x01, 0x00, 0x00, 
  0x00, 0x00, 0x00, 0x00, 0x00, 0x00, 0xE8, 0xFF, 0x3F, 0x00, 0x00, 0xFE, 
  0x03, 0x00, 0x00, 0xFF, 0x00, 0x00, 0x00, 0x00, 0x00, 0x00, 0x00, 0x00, 
  0x00, 0xBE, 0xFF, 0xFF, 0x00, 0x00, 0xFE, 0x03, 0x00, 0x80, 0xFF, 0x00, 
  0x00, 0x00, 0x00, 0x00, 0x00, 0x00, 0x00, 0x00, 0xFF, 0xFE, 0xFF, 0x03, 
  0x00, 0xFC, 0x07, 0x00, 0xC0, 0x7F, 0x00, 0x00, 0x00, 0x00, 0x00, 0x00, 
  0x00, 0x00, 0xC0, 0xFF, 0xFD, 0xFF, 0x0F, 0x00, 0xF8, 0x07, 0x00, 0xC0, 
  0x3F, 0x00, 0x00, 0x00, 0x00, 0x00, 0x00, 0x00, 0x00, 0xF0, 0xFF, 0xFB, 
  0xFF, 0x1F, 0x00, 0xF8, 0x4F, 0x00, 0xE0, 0x3F, 0x00, 0x00, 0x00, 0x00, 
  0x00, 0x00, 0x00, 0x00, 0xF8, 0xFF, 0xFF, 0xFF, 0x7F, 0x00, 0xF0, 0x0F, 
  0x00, 0xE0, 0x3F, 0x00, 0x00, 0x00, 0x00, 0x00, 0x00, 0x00, 0x00, 0xFC, 
  0xFF, 0x81, 0xFF, 0x7F, 0x00, 0xF0, 0x1F, 0x00, 0xE0, 0x1F, 0x00, 0x00, 
  0x00, 0x00, 0x00, 0x00, 0x00, 0x00, 0xFE, 0x3F, 0x00, 0xFC, 0xFF, 0x00, 
  0xE0, 0x1F, 0x00, 0xF0, 0x0F, 0x00, 0x00, 0x00, 0x00, 0x00, 0x00, 0x00, 
  0x00, 0xFF, 0x07, 0x00, 0xC0, 0xFF, 0x01, 0xC0, 0x1F, 0x00, 0xF0, 0x0F, 
  0x00, 0x00, 0x00, 0x00, 0x00, 0x00, 0x00, 0x80, 0xFF, 0x03, 0x00, 0x80, 
  0xFF, 0x03, 0xC0, 0x3F, 0x00, 0xF8, 0x07, 0x00, 0x00, 0x00, 0x00, 0x00, 
  0x00, 0x00, 0x80, 0xFF, 0x01, 0x00, 0x00, 0xFE, 0x07, 0xC0, 0x3F, 0x00, 
  0xF8, 0x07, 0x00, 0x00, 0x00, 0x00, 0x00, 0x00, 0x00, 0xC0, 0x7F, 0x00, 
  0x00, 0x00, 0xFC, 0x07, 0x80, 0x2F, 0x00, 0xFC, 0x03, 0x00, 0x00, 0x00, 
  0x00, 0x00, 0x00, 0x00, 0xE0, 0x7F, 0x00, 0x00, 0x40, 0xFC, 0x0F, 0x80, 
  0x7F, 0x00, 0xFC, 0x03, 0x00, 0x00, 0x00, 0x00, 0x00, 0x00, 0x00, 0xE0, 
  0x3F, 0x00, 0x00, 0x00, 0xF0, 0x1F, 0x80, 0x7F, 0x00, 0xFC, 0x03, 0x00, 
  0x00, 0x00, 0x00, 0x00, 0x00, 0x00, 0xF0, 0x1F, 0x00, 0x00, 0x00, 0xF0, 
  0x1F, 0x00, 0xDF, 0x00, 0xFE, 0x01, 0x00, 0x00, 0x00, 0x00, 0x00, 0x00, 
  0x00, 0xF0, 0x0F, 0x00, 0x00, 0x00, 0xE0, 0x1F, 0x00, 0xBF, 0x00, 0xFE, 
  0x01, 0x00, 0x00, 0x00, 0x00, 0x00, 0x00, 0x00, 0xF8, 0x0F, 0x00, 0x00, 
  0x00, 0xC8, 0x3F, 0x00, 0xFE, 0x00, 0xFE, 0x01, 0x00, 0x00, 0x00, 0x00, 
  0x00, 0x00, 0x00, 0xF8, 0x07, 0x00, 0x00, 0x00, 0xC0, 0x3F, 0x00, 0xFE, 
  0x01, 0xFE, 0x00, 0x00, 0x00, 0x00, 0x00, 0x00, 0x00, 0x00, 0xF8, 0x07, 
  0x00, 0x38, 0x08, 0xC0, 0x3F, 0x00, 0x9E, 0x01, 0xFE, 0x00, 0x00, 0x00, 
  0x00, 0x00, 0x00, 0x00, 0x00, 0xF8, 0x03, 0x00, 0xFF, 0x00, 0x80, 0x7F, 
  0x00, 0xFE, 0x00, 0xFF, 0x00, 0x00, 0x00, 0x00, 0x00, 0x00, 0x00, 0x00, 
  0xFC, 0x01, 0x80, 0xFF, 0x23, 0x80, 0x7F, 0x00, 0xBC, 0x03, 0xFF, 0x00, 
  0x00, 0x00, 0x00, 0x00, 0x00, 0x00, 0x00, 0xFC, 0x03, 0x80, 0xFF, 0x07, 
  0x80, 0x7F, 0x00, 0x7C, 0x01, 0xFF, 0x00, 0x00, 0x00, 0x00, 0x00, 0x00, 
  0x00, 0x00, 0xFC, 0x03, 0xC0, 0xFF, 0x07, 0x00, 0x7F, 0x00, 0xDC, 0x02, 
  0x7F, 0x00, 0x00, 0x00, 0x00, 0x00, 0x00, 0x00, 0x00, 0xFC, 0x01, 0xC0, 
  0xFF, 0x0F, 0x00, 0xFF, 0x00, 0x58, 0x02, 0x7F, 0x00, 0x00, 0x00, 0x00, 
  0x00, 0x00, 0x00, 0x00, 0xFC, 0x03, 0xE0, 0xFF, 0x07, 0x00, 0x7E, 0x00, 
  0xF8, 0x07, 0x7F, 0x00, 0x00, 0x00, 0x00, 0x00, 0x00, 0x00, 0x00, 0xFC, 
  0x01, 0xC0, 0xFF, 0x0F, 0x08, 0x7F, 0x00, 0x78, 0x07, 0x7F, 0x00, 0x00, 
  0x00, 0x00, 0x00, 0x00, 0x00, 0x00, 0xFC, 0x01, 0xE0, 0xFF, 0x0F, 0x00, 
  0xFE, 0x00, 0xE8, 0x07, 0x3F, 0x00, 0x00, 0x00, 0x00, 0x00, 0x00, 0x00, 
  0x00, 0xFC, 0x01, 0xC0, 0xFF, 0x0F, 0x00, 0x7F, 0x00, 0xD8, 0x07, 0x3F, 
  0x00, 0x00, 0x00, 0x80, 0xFF, 0x1F, 0x00, 0x00, 0xFC, 0x01, 0xC0, 0xFF, 
  0x07, 0x80, 0xEA, 0x00, 0xF0, 0x07, 0x3F, 0x00, 0x00, 0x00, 0xF8, 0xFF, 
  0xFF, 0x00, 0x00, 0xFC, 0x03, 0x80, 0xFF, 0x07, 0x00, 0x5B, 0x20, 0xF0, 
  0x07, 0x3F, 0x00, 0x00, 0x00, 0xFE, 0xFF, 0xFF, 0x03, 0x00, 0xFC, 0x03, 
  0x80, 0xFF, 0x03, 0x80, 0x7F, 0x00, 0xF0, 0x07, 0x3F, 0x00, 0x00, 0x80, 
  0xFF, 0xFF, 0xFF, 0x0F, 0x00, 0xF8, 0x03, 0x00, 0xFE, 0x01, 0x80, 0x3F, 
  0x00, 0xF8, 0x07, 0x3F, 0x00, 0x00, 0xE0, 0xFF, 0xFF, 0xFF, 0x3F, 0x00, 
  0xF8, 0x07, 0x00, 0x78, 0x00, 0xC0, 0x2F, 0x00, 0xF0, 0x07, 0x3F, 0x00, 
  0x00, 0xF0, 0xFF, 0xFF, 0xFF, 0x7F, 0x00, 0xF8, 0x07, 0x00, 0x00, 0x00, 
  0xC0, 0x3F, 0x00, 0xF8, 0x07, 0x3F, 0x00, 0x00, 0xF8, 0xFF, 0xFF, 0xFF, 
  0xFF, 0x00, 0xF8, 0x0F, 0x00, 0x00, 0x00, 0xC0, 0x3F, 0x00, 0xF0, 0x07, 
  0x3F, 0x00, 0x00, 0xFC, 0xFF, 0xFF, 0xFF, 0xFF, 0x01, 0xF0, 0x0F, 0x00, 
  0x00, 0x00, 0xE0, 0x1F, 0x00, 0xF0, 0x07, 0x3F, 0x00, 0x00, 0xFF, 0xFF, 
  0xFF, 0xFF, 0xFF, 0x03, 0xF0, 0x1F, 0x00, 0x00, 0x00, 0xF0, 0x1F, 0x10, 
  0xF0, 0x07, 0x1F, 0x00, 0x00, 0xFF, 0xFF, 0x27, 0xFF, 0xFF, 0x07, 0xE0, 
  0x3F, 0x00, 0x00, 0x00, 0xF8, 0x1F, 0x00, 0xF0, 0x07, 0x3F, 0x00, 0x80, 
  0xFF, 0x07, 0x00, 0x40, 0xFE, 0x0F, 0xE0, 0x7F, 0x00, 0x00, 0x00, 0xF8, 
  0x0F, 0x00, 0xF0, 0x0F, 0x3F, 0x00, 0x80, 0x3F, 0x00, 0x00, 0x00, 0xF0, 
  0x0F, 0xC0, 0x7F, 0x00, 0x00, 0x00, 0xFC, 0x07, 0x00, 0xF0, 0x07, 0x3F, 
  0x00, 0x00, 0x07, 0x00, 0x00, 0x00, 0x00, 0x07, 0xC0, 0xFF, 0x00, 0x00, 
  0x00, 0xFE, 0x07, 0x00, 0xF0, 0x0F, 0x3F, 0x00, 0x00, 0x00, 0x00, 0x00, 
  0x00, 0x00, 0x00, 0x00, 0xFF, 0x07, 0x00, 0x80, 0xFF, 0x03, 0x00, 0xF0, 
  0x07, 0x3F, 0x00, 0x00, 0x00, 0x00, 0x00, 0x00, 0x00, 0x00, 0x00, 0xFF, 
  0x0F, 0x00, 0xE0, 0xFF, 0x01, 0x00, 0xF0, 0x07, 0x3F, 0x00, 0x00, 0x00, 
  0x00, 0x00, 0x00, 0x00, 0x00, 0x00, 0xFE, 0x7F, 0x00, 0xF8, 0xFF, 0x01, 
  0x00, 0xF0, 0x07, 0x3F, 0x00, 0x00, 0x00, 0x00, 0x00, 0x00, 0x00, 0x00, 
  0x00, 0xFC, 0xFF, 0x85, 0xFF, 0x7F, 0x00, 0x00, 0xF0, 0x07, 0x3F, 0x00, 
  0x00, 0x00, 0x00, 0x00, 0x00, 0x00, 0x00, 0x00, 0xF8, 0xFF, 0xFF, 0xFF, 
  0x3F, 0x00, 0x00, 0xF8, 0x07, 0x3F, 0x00, 0x00, 0x00, 0x00, 0x00, 0x00, 
  0x00, 0x00, 0x00, 0xF0, 0xFF, 0xFF, 0xFF, 0x1F, 0x00, 0x00, 0xF0, 0x07, 
  0x7F, 0x00, 0x00, 0x00, 0x00, 0x00, 0x00, 0x00, 0x00, 0x00, 0xE0, 0xFF, 
  0xFF, 0xFF, 0x0F, 0x00, 0x00, 0xF8, 0x07, 0x7F, 0x00, 0x00, 0x00, 0x00, 
  0x00, 0x00, 0x00, 0x00, 0x00, 0x00, 0xFF, 0xFF, 0xFF, 0x03, 0x00, 0x00, 
  0xF8, 0x07, 0x7F, 0x00, 0x00, 0x00, 0x00, 0x00, 0x00, 0x00, 0x00, 0x00, 
  0x00, 0xFE, 0xFF, 0xFF, 0x00, 0x00, 0x00, 0xF8, 0x03, 0x7F, 0x00, 0x00, 
  0x00, 0x00, 0x00, 0x00, 0x00, 0x00, 0x00, 0x00, 0xF0, 0xFF, 0x1F, 0x00, 
  0x00, 0x00, 0xF8, 0x03, 0x7F, 0x00, 0x00, 0x00, 0x00, 0x00, 0x00, 0x00, 
  0x00, 0x00, 0x00, 0x80, 0xFF, 0x03, 0x00, 0x00, 0x00, 0xFC, 0x03, 0x7F, 
  0x00, 0x00, 0x00, 0x00, 0x00, 0x00, 0x00, 0x00, 0x00, 0x00, 0x00, 0x00, 
  0x00, 0x00, 0x00, 0x00, 0xFC, 0x03, 0xFF, 0x00, 0x00, 0x00, 0x00, 0x00, 
  0x00, 0x00, 0x00, 0x00, 0x00, 0x00, 0x00, 0x00, 0x00, 0x00, 0x00, 0xFC, 
  0x03, 0xFF, 0x00, 0x00, 0x00, 0x00, 0x00, 0x00, 0x00, 0x00, 0x00, 0x00, 
  0x00, 0x00, 0x00, 0x00, 0x00, 0x00, 0xFC, 0x03, 0xFE, 0x00, 0x00, 0x00, 
  0x00, 0x00, 0x00, 0x00, 0x00, 0x00, 0x00, 0x00, 0x00, 0x00, 0x00, 0x00, 
  0x00, 0xFE, 0x01, 0xFE, 0x00, 0x00, 0x00, 0xF0, 0x01, 0x00, 0x00, 0x00, 
  0x00, 0x00, 0x00, 0x00, 0xE0, 0x07, 0x00, 0x00, 0xFE, 0x01, 0xFE, 0x01, 
  0x00, 0x00, 0xF8, 0x2F, 0x00, 0x00, 0x00, 0x00, 0x00, 0x00, 0x00, 0xFE, 
  0x07, 0x00, 0x00, 0xFE, 0x01, 0xFE, 0x01, 0x00, 0x00, 0xF8, 0xFF, 0x01, 
  0x00, 0x00, 0x00, 0x00, 0x00, 0xE0, 0xFF, 0x07, 0x00, 0x00, 0xFE, 0x00, 
  0xFE, 0x01, 0x00, 0x00, 0xF8, 0xFF, 0x9F, 0x02, 0x00, 0x00, 0x00, 0x80, 
  0xFF, 0xFF, 0x0F, 0x00, 0x00, 0xFF, 0x00, 0xFC, 0x03, 0x00, 0x00, 0xF8, 
  0xFF, 0xFF, 0x7F, 0x04, 0x00, 0xA1, 0xFF, 0xFF, 0xFF, 0x0F, 0x00, 0x00, 
  0xFF, 0x00, 0xFC, 0x03, 0x00, 0x00, 0xF8, 0xFF, 0xF7, 0xFF, 0xFF, 0xFF, 
  0xFF, 0xFF, 0xFF, 0xFF, 0x0F, 0x00, 0x00, 0x7F, 0x00, 0xF8, 0x07, 0x00, 
  0x00, 0xF8, 0xFF, 0xFF, 0xFF, 0xFF, 0xFF, 0xFF, 0xFF, 0xFF, 0xFF, 0x07, 
  0x00, 0x80, 0x7F, 0x00, 0xF8, 0x07, 0x00, 0x00, 0xF8, 0xFF, 0xFF, 0xFF, 
  0xFF, 0xFF, 0xFF, 0xFF, 0xFF, 0xFF, 0x07, 0x00, 0x80, 0x7F, 0x00, 0xF8, 
  0x0F, 0x00, 0x00, 0xF0, 0xFF, 0xFE, 0xFF, 0xFF, 0xFF, 0xFF, 0xFF, 0xFF, 
  0xFF, 0x07, 0x00, 0xC0, 0x3F, 0x00, 0xF0, 0x0F, 0x00, 0x00, 0xF0, 0xFF, 
  0xFF, 0xFF, 0xFF, 0xFF, 0xFF, 0xFF, 0xFF, 0xFF, 0x07, 0x00, 0xC0, 0x3F, 
  0x00, 0xF0, 0x0F, 0x00, 0x00, 0xF0, 0xFF, 0xFF, 0xFF, 0xFF, 0xFF, 0xFF, 
  0xFF, 0xFF, 0xFF, 0x03, 0x00, 0xE0, 0x3F, 0x00, 0xE0, 0x1F, 0x00, 0x00, 
  0xF0, 0xFF, 0xFF, 0xFF, 0xFF, 0xFF, 0xFF, 0xFF, 0xFF, 0xFF, 0x03, 0x00, 
  0xE0, 0x1F, 0x00, 0xE0, 0x1F, 0x00, 0x00, 0xE0, 0xEF, 0xFF, 0x3F, 0x68, 
  0x19, 0x01, 0xFE, 0xFF, 0xFF, 0x03, 0x00, 0xF0, 0x1F, 0x00, 0xE0, 0x3F, 
  0x00, 0x00, 0xE0, 0xF7, 0xFF, 0x3F, 0x00, 0x00, 0x00, 0xFE, 0xFF, 0xFF, 
  0x01, 0x00, 0xF0, 0x0F, 0x00, 0xC0, 0x7F, 0x00, 0x00, 0xC0, 0xFF, 0xFF, 
  0x3F, 0x00, 0x00, 0x00, 0xFE, 0xFF, 0xFF, 0x01, 0x00, 0xF8, 0x0F, 0x00, 
  0x80, 0x7F, 0x00, 0x00, 0xC0, 0xFF, 0xFF, 0x3F, 0x00, 0x00, 0x00, 0xFE, 
  0xFF, 0xFF, 0x01, 0x00, 0xF8, 0x07, 0x00, 0x80, 0xFF, 0x00, 0x00, 0x80, 
  0xFF, 0xFF, 0x7F, 0x00, 0x00, 0x00, 0xFE, 0xFF, 0xFF, 0x00, 0x00, 0xFC, 
  0x07, 0x00, 0x00, 0xFF, 0x00, 0x00, 0x00, 0xFF, 0xFF, 0x3F, 0x00, 0x00, 
  0x00, 0xFF, 0xFF, 0x7F, 0x00, 0x00, 0xFE, 0x03, 0x00, 0x00, 0xFF, 0x01, 
  0x00, 0x00, 0xFF, 0xFF, 0x3F, 0x00, 0x00, 0x00, 0xFE, 0xFF, 0x3F, 0x00, 
  0x00, 0xFF, 0x03, 0x00, 0x00, 0xFE, 0x03, 0x00, 0x00, 0xFE, 0xFF, 0x3F, 
  0x00, 0x00, 0x00, 0xFE, 0xFF, 0x3F, 0x00, 0x00, 0xFF, 0x01, 0x00, 0x00, 
  0xFE, 0x03, 0x00, 0x00, 0xFC, 0xFF, 0x3F, 0x00, 0x00, 0x00, 0xFE, 0xFF, 
  0x0F, 0x00, 0x80, 0xFF, 0x00, 0x00, 0x00, 0xFC, 0x07, 0x00, 0x00, 0xFC, 
  0xFF, 0x3F, 0x00, 0x00, 0x00, 0xFE, 0xFF, 0x0F, 0x00, 0x80, 0xFF, 0x00, 
  0x00, 0x00, 0xF8, 0x0F, 0x00, 0x00, 0xF0, 0xFF, 0x7F, 0x00, 0x00, 0x00, 
  0xFF, 0xFF, 0x07, 0x00, 0xC0, 0x7F, 0x00, 0x00, 0x00, 0xF8, 0x1F, 0x00, 
  0x00, 0xF0, 0xFF, 0x3F, 0x00, 0x00, 0x00, 0xFE, 0xFF, 0x03, 0x00, 0xE0, 
  0x7F, 0x00, 0x00, 0x00, 0xF0, 0x3F, 0x00, 0x00, 0xC0, 0xFF, 0x3F, 0x00, 
  0x00, 0x00, 0xFE, 0xFF, 0x01, 0x00, 0xF0, 0x3F, 0x00, 0x00, 0x00, 0xE0, 
  0x3F, 0x00, 0x00, 0xC0, 0xFF, 0x3F, 0x00, 0x00, 0x00, 0xFE, 0xFF, 0x00, 
  0x00, 0xF8, 0x1F, 0x00, 0x00, 0x00, 0xC0, 0xFF, 0x00, 0x00, 0x00, 0xFF, 
  0x3F, 0x00, 0x00, 0x00, 0xFF, 0x7F, 0x00, 0x00, 0xFC, 0x0F, 0x00, 0x00, 
  0x00, 0xC0, 0xFF, 0x00, 0x00, 0x00, 0xFE, 0x3F, 0x00, 0x00, 0x00, 0xFE, 
  0x3F, 0x00, 0x00, 0xFE, 0x07, 0x00, 0x00, 0x00, 0x80, 0xFF, 0x01, 0x00, 
  0x00, 0xFC, 0x7F, 0x00, 0x00, 0x00, 0xFF, 0x0F, 0x00, 0x00, 0xFE, 0x07, 
  0x00, 0x00, 0x00, 0x00, 0xFF, 0x07, 0x00, 0x00, 0xE0, 0x3F, 0x00, 0x00, 
  0x00, 0xFE, 0x03, 0x00, 0x80, 0xFF, 0x03, 0x00, 0x00, 0x00, 0x00, 0xFE, 
  0x03, 0x00, 0x00, 0xC0, 0x3F, 0x00, 0x00, 0x00, 0xFE, 0x01, 0x00, 0x80, 
  0xFF, 0x01, 0x00, 0x00, 0x00, 0x00, 0xFE, 0x1F, 0x00, 0x00, 0x80, 0x3F, 
  0x00, 0x00, 0x00, 0xFE, 0x00, 0x00, 0xE0, 0xFF, 0x00, 0x00, 0x00, 0x00, 
  0x00, 0xF8, 0x1E, 0x00, 0x00, 0x80, 0x3F, 0x00, 0x00, 0x00, 0xFF, 0x00, 
  0x00, 0xF0, 0x7F, 0x00, 0x00, 0x00, 0x00, 0x00, 0xF0, 0x7F, 0x00, 0x00, 
  0x80, 0x3F, 0x00, 0x00, 0x00, 0xFE, 0x00, 0x00, 0xF8, 0x3F, 0x00, 0x00, 
  0x00, 0x00, 0x00, 0xE0, 0xFF, 0x00, 0x00, 0x80, 0x3F, 0x00, 0x00, 0x00, 
  0xFF, 0x00, 0x00, 0xFE, 0x3F, 0x00, 0x00, 0x00, 0x00, 0x00, 0xC0, 0xFF, 
  0x03, 0x00, 0x80, 0x3F, 0x00, 0x00, 0x00, 0xFE, 0x00, 0x00, 0xFF, 0x0F, 
  0x00, 0x00, 0x00, 0x00, 0x00, 0xC0, 0xFF, 0x07, 0x00, 0x80, 0x3F, 0x00, 
  0x00, 0x00, 0xFE, 0x00, 0x80, 0xFF, 0x07, 0x00, 0x00, 0x00, 0x00, 0x00, 
  0x00, 0xFF, 0x0F, 0x00, 0x80, 0x7F, 0x00, 0x00, 0x00, 0xFF, 0x00, 0xE0, 
  0xFF, 0x03, 0x00, 0x00, 0x00, 0x00, 0x00, 0x00, 0xFE, 0x3F, 0x00, 0x80, 
  0x3F, 0x00, 0x00, 0x00, 0xFE, 0x00, 0xF0, 0xFF, 0x01, 0x00, 0x00, 0x00, 
  0x00, 0x00, 0x00, 0xFC, 0xFF, 0x00, 0x80, 0x3F, 0x00, 0x00, 0x00, 0xFE, 
  0x01, 0xFC, 0x7F, 0x00, 0x00, 0x00, 0x00, 0x00, 0x00, 0x00, 0xF8, 0xFF, 
  0x03, 0x80, 0x3F, 0x00, 0x00, 0x00, 0xFE, 0x00, 0xFF, 0x3F, 0x00, 0x00, 
  0x00, 0x00, 0x00, 0x00, 0x00, 0xE0, 0xFF, 0x07, 0x80, 0x7F, 0x00, 0x00, 
  0x00, 0xFF, 0xC0, 0xFF, 0x1F, 0x00, 0x00, 0x00, 0x00, 0x00, 0x00, 0x00, 
  0xC0, 0xFF, 0x3F, 0x80, 0x3F, 0x00, 0x00, 0x00, 0xFE, 0xF0, 0xFF, 0x07, 
  0x00, 0x00, 0x00, 0x00, 0x00, 0x00, 0x00, 0x80, 0xFF, 0xFF, 0x80, 0x3F, 
  0x00, 0x00, 0x00, 0xFE, 0xFC, 0xFF, 0x03, 0x00, 0x00, 0x00, 0x00, 0x00, 
  0x00, 0x00, 0x00, 0xFE, 0xFF, 0x83, 0x3F, 0x00, 0x00, 0x00, 0xFE, 0xFF, 
  0xFF, 0x01, 0x00, 0x00, 0x00, 0x00, 0x00, 0x00, 0x00, 0x00, 0xF8, 0xFF, 
  0x9F, 0x7F, 0x00, 0x00, 0x00, 0xFE, 0xFF, 0x7F, 0x00, 0x00, 0x00, 0x00, 
  0x00, 0x00, 0x00, 0x00, 0x00, 0xF0, 0xFF, 0xFF, 0x3F, 0x00, 0x00, 0x00, 
  0xFF, 0xFF, 0x1F, 0x00, 0x00, 0x00, 0x00, 0x00, 0x00, 0x00, 0x00, 0x00, 
  0x80, 0xFF, 0xFF, 0x3F, 0x00, 0x00, 0x00, 0xFE, 0xFF, 0x07, 0x00, 0x00, 
  0x00, 0x00, 0x00, 0x00, 0x00, 0x00, 0x00, 0x00, 0xFE, 0xFF, 0x3F, 0x00, 
  0x00, 0x00, 0xFE, 0xFF, 0x01, 0x00, 0x00, 0x00, 0x00, 0x00, 0x00, 0x00, 
  0x00, 0x00, 0x00, 0xFC, 0xFF, 0x7F, 0x00, 0x00, 0x00, 0xFE, 0x7F, 0x00, 
  0x00, 0x00, 0x00, 0x00, 0x00, 0x00, 0x00, 0x00, 0x00, 0x00, 0xF0, 0xFF, 
  0x3F, 0x00, 0x00, 0x00, 0xFF, 0x2F, 0x00, 0x00, 0x00, 0x00, 0x00, 0x00, 
  0x00, 0x00, 0x00, 0x00, 0x00, 0x80, 0xFF, 0x3F, 0x00, 0x00, 0x00, 0xFE, 
  0x07, 0x00, 0x00, 0x00, 0x00, 0x00, 0x00, 0x00, 0x00, 0x00, 0x00, 0x00, 
  0x00, 0xFE, 0x3F, 0x00, 0x00, 0x00, 0xFF, 0x00, 0x00, 0x00, 0x00, 0x00, 
  0x00, 0x00, 0x00, 0x00, 0x00, 0x00, 0x00, 0x00, 0xC0, 0x7F, 0x00, 0x00, 
  0x00, 0xFE, 0x01, 0x00, 0x00, 0x00, 0x00, 0x00, 0x00, 0x00, 0x00, 0x00, 
  0x00, 0x00, 0x00, 0x80, 0x3F, 0x00, 0x00, 0x00, 0xFE, 0x00, 0x00, 0x00, 
  0x00, 0x00, 0x00, 0x00, 0x00, 0x00, 0x00, 0x00, 0x00, 0x00, 0x80, 0x3F, 
  0x00, 0x00, 0x00, 0xFE, 0x00, 0x00, 0x00, 0x00, 0x00, 0x00, 0x00, 0x00, 
  0x00, 0x00, 0x00, 0x00, 0x00, 0x80, 0x3F, 0x00, 0x00, 0x00, 0xFF, 0x00, 
  0x00, 0x00, 0x00, 0x00, 0x00, 0x00, };
