#define pict_23_width 150
#define pict_23_height 150
static char pict_23_bits[] = {
  0x00, 0x00, 0x00, 0x00, 0x00, 0x00, 0x00, 0x80, 0xFE, 0xFF, 0x17, 0x00, 
  0x00, 0x00, 0x00, 0x00, 0x00, 0x00, 0x00, 0x00, 0x00, 0x00, 0x00, 0x00, 
  0x00, 0x00, 0xFC, 0xFF, 0xFF, 0xFF, 0x01, 0x00, 0x00, 0x00, 0x00, 0x00, 
  0x00, 0x00, 0x00, 0x00, 0x00, 0x00, 0x00, 0x00, 0x80, 0xFF, 0xFF, 0xFF, 
  0xFF, 0x3F, 0x00, 0x00, 0x00, 0x00, 0x00, 0x00, 0x00, 0x00, 0x00, 0x00, 
  0x00, 0x00, 0x00, 0xF8, 0xFF, 0xFF, 0xFF, 0xFF, 0xFF, 0x00, 0x00, 0x00, 
  0x00, 0x00, 0x00, 0x00, 0x00, 0x00, 0x00, 0x00, 0x00, 0x80, 0xFF, 0xFF, 
  0xFF, 0xFF, 0xFF, 0xFF, 0x1F, 0x00, 0x00, 0x00, 0x00, 0x00, 0x00, 0x00, 
  0x00, 0x00, 0x00, 0x00, 0xE0, 0xFF, 0xFF, 0xFF, 0xFF, 0xFF, 0xFF, 0x3E, 
  0x00, 0x00, 0x00, 0x00, 0x00, 0x00, 0x00, 0x00, 0x00, 0x00, 0x00, 0xF8, 
  0xFF, 0xFF, 0xFF, 0xFF, 0xFF, 0x7F, 0xFF, 0x01, 0x00, 0x00, 0x00, 0x00, 
  0x00, 0x00, 0x00, 0x00, 0x00, 0x00, 0xFE, 0xFF, 0xFF, 0x07, 0x40, 0xFE, 
  0xFF, 0xFF, 0x07, 0x00, 0x00, 0x00, 0x00, 0x00, 0x00, 0x00, 0x00, 0x00, 
  0x80, 0xFF, 0xFF, 0x1F, 0x00, 0x00, 0x80, 0xDF, 0xFF, 0x1F, 0x00, 0x00, 
  0x00, 0x00, 0x00, 0x00, 0x00, 0x00, 0x00, 0xE0, 0xFF, 0xFF, 0x00, 0x00, 
  0x00, 0x00, 0xF8, 0xFF, 0x3F, 0x00, 0x00, 0x00, 0x00, 0x00, 0x00, 0x00, 
  0x00, 0x00, 0xF8, 0xFF, 0x3F, 0x00, 0x00, 0x00, 0x00, 0xC0, 0xFF, 0xFF, 
  0x00, 0x00, 0x00, 0x00, 0x00, 0x00, 0x00, 0x00, 0x00, 0xFC, 0xFF, 0x03, 
  0x00, 0x00, 0x00, 0x00, 0x00, 0xFC, 0xFF, 0x03, 0x00, 0x00, 0x00, 0x00, 
  0x00, 0x00, 0x00, 0x00, 0xFF, 0xFF, 0x00, 0x00, 0x00, 0x00, 0x00, 0x00, 
  0xF0, 0xFF, 0x0F, 0x00, 0x00, 0x00, 0x00, 0x00, 0x00, 0x00, 0x80, 0xFF, 
  0x1F, 0x00, 0x00, 0x00, 0x00, 0x00, 0x00, 0xC0, 0xFF, 0x1F, 0x00, 0x00, 
  0x00, 0x00, 0x00, 0x00, 0x00, 0xE0, 0xFF, 0x07, 0x00, 0x00, 0x00, 0x00, 
  0x00, 0x00, 0x00, 0xFF, 0x3F, 0x00, 0x00, 0x00, 0x00, 0x00, 0x00, 0x00, 
  0xF0, 0xFF, 0x03, 0x00, 0x00, 0x00, 0x00, 0x00, 0x00, 0x00, 0xFC, 0xFF, 
  0x00, 0x00, 0x00, 0x00, 0x00, 0x00, 0x00, 0xF8, 0xFF, 0x00, 0x00, 0x00, 
  0x00, 0x00, 0x00, 0x00, 0x00, 0xF0, 0xFF, 0x01, 0x00, 0x00, 0x00, 0x00, 
  0x00, 0x00, 0xFC, 0x7F, 0x00, 0x00, 0x00, 0x00, 0x00, 0x00, 0x00, 0x00, 
  0xE0, 0xFF, 0x03, 0x00, 0x00, 0x00, 0x00, 0x00, 0x00, 0xFF, 0x0F, 0x00, 
  0x00, 0x00, 0x00, 0x00, 0x00, 0x00, 0x00, 0x80, 0xFF, 0x07, 0x00, 0x00, 
  0x00, 0x00, 0x00, 0x80, 0xFF, 0x07, 0x00, 0x00, 0x00, 0x00, 0x00, 0x00, 
  0x00, 0x00, 0x00, 0xFE, 0x0F, 0x00, 0x00, 0x00, 0x00, 0x00, 0x80, 0xFF, 
  0x03, 0x00, 0x00, 0x00, 0x00, 0x00, 0x00, 0x00, 0x00, 0x00, 0xFC, 0x3F, 
  0x00, 0x00, 0x00, 0x00, 0x00, 0xE0, 0xFF, 0x00, 0x00, 0x00, 0x00, 0x00, 
  0x00, 0x00, 0x00, 0x00, 0x00, 0xF8, 0x3F, 0x00, 0x00, 0x00, 0x00, 0x00, 
  0xF0, 0x7F, 0x00, 0x00, 0x00, 0x00, 0x00, 0x00, 0x00, 0x00, 0x00, 0x00, 
  0xF0, 0x7F, 0x00, 0x00, 0x00, 0x00, 0x00, 0xF0, 0x3F, 0x00, 0x00, 0x00, 
  0x00, 0x00, 0x00, 0x00, 0x00, 0x00, 0x00, 0xC0, 0xFF, 0x00, 0x00, 0x00, 
  0x00, 0x00, 0xF8, 0x1F, 0x00, 0x00, 0x00, 0x00, 0x00, 0x00, 0x00, 0x00, 
  0x00, 0x00, 0xC0, 0xFF, 0x01, 0x00, 0x00, 0x00, 0x00, 0xFE, 0x0F, 0x00, 
  0x00, 0x00, 0x00, 0x00, 0x00, 0x00, 0x00, 0x00, 0x00, 0x00, 0xFF, 0x03, 
  0x00, 0x00, 0x00, 0x00, 0xFE, 0x07, 0x00, 0x00, 0x00, 0x00, 0x00, 0x00, 
  0x00, 0x00, 0x00, 0x00, 0x00, 0xFE, 0x07, 0x00, 0x00, 0x00, 0x00, 0xFF, 
  0x03, 0x00, 0x00, 0x00, 0x00, 0x00, 0x00, 0x00, 0x00, 0x00, 0x00, 0x00, 
  0xFC, 0x0F, 0x00, 0x00, 0x00, 0x80, 0xFF, 0x01, 0x00, 0x00, 0x00, 0x00, 
  0x00, 0x00, 0x00, 0x00, 0x00, 0x00, 0x00, 0xF8, 0x1F, 0x00, 0x00, 0x00, 
  0x80, 0xFF, 0x00, 0x00, 0x00, 0x00, 0x00, 0x00, 0x00, 0x00, 0x00, 0x00, 
  0x00, 0x00, 0xF8, 0x1F, 0x00, 0x00, 0x00, 0xE0, 0x7F, 0x00, 0x00, 0x00, 
  0x00, 0x00, 0x00, 0x00, 0x00, 0x00, 0x00, 0x00, 0x00, 0xE0, 0x3F, 0x00, 
  0x00, 0x00, 0xE0, 0x7F, 0x00, 0x00, 0x00, 0x00, 0x00, 0x00, 0x00, 0x00, 
  0x00, 0x00, 0x00, 0x00, 0xE0, 0x7F, 0x00, 0x00, 0x00, 0xF0, 0x1F, 0x00, 
  0x00, 0x00, 0x00, 0x00, 0x00, 0x00, 0x00, 0x00, 0x00, 0x00, 0x00, 0x80, 
  0x7F, 0x00, 0x00, 0x00, 0xF8, 0x1F, 0x00, 0x00, 0x00, 0x20, 0x00, 0x00, 
  0x00, 0x00, 0x50, 0x00, 0x00, 0x00, 0x80, 0xFF, 0x00, 0x00, 0x00, 0xF8, 
  0x0F, 0x00, 0x00, 0x00, 0xFE, 0x00, 0x00, 0x00, 0x00, 0xFC, 0x01, 0x00, 
  0x00, 0x00, 0xFF, 0x01, 0x00, 0x00, 0xFC, 0x07, 0x00, 0x00, 0x00, 0xFE, 
  0x01, 0x00, 0x00, 0x00, 0xFE, 0x03, 0x00, 0x00, 0x00, 0xFE, 0x03, 0x00, 
  0x00, 0xFE, 0x03, 0x00, 0x00, 0x00, 0xFF, 0x03, 0x00, 0x00, 0x00, 0xFE, 
  0x07, 0x00, 0x00, 0x00, 0xFE, 0x03, 0x00, 0x00, 0xFE, 0x03, 0x00, 0x00, 
  0x80, 0xFF, 0x07, 0x00, 0x00, 0x00, 0xFF, 0x0F, 0x00, 0x00, 0x00, 0xFC, 
  0x07, 0x00, 0x00, 0xFE, 0x01, 0x00, 0x00, 0xC0, 0xFF, 0x0F, 0x00, 0x00, 
  0x80, 0xFF, 0x0F, 0x00, 0x00, 0x00, 0xF8, 0x07, 0x00, 0x00, 0xFF, 0x00, 
  0x00, 0x00, 0xC0, 0xFF, 0x0F, 0x00, 0x00, 0xC0, 0xFF, 0x1F, 0x00, 0x00, 
  0x00, 0xF8, 0x0F, 0x00, 0x80, 0xFF, 0x00, 0x00, 0x00, 0xE0, 0xFF, 0x1F, 
  0x00, 0x00, 0xC0, 0xFF, 0x1F, 0x00, 0x00, 0x00, 0xF0, 0x1F, 0x00, 0x80, 
  0x7F, 0x00, 0x00, 0x00, 0xE0, 0xFF, 0x0F, 0x00, 0x00, 0xC0, 0xFF, 0x1F, 
  0x00, 0x00, 0x00, 0xF0, 0x1F, 0x00, 0x80, 0x7F, 0x00, 0x00, 0x00, 0xE0, 
  0xFF, 0x17, 0x00, 0x00, 0xE0, 0xFF, 0x3F, 0x00, 0x00, 0x00, 0xE0, 0x1F, 
  0x00, 0xC0, 0x7F, 0x00, 0x00, 0x00, 0xF0, 0xFF, 0x1F, 0x00, 0x00, 0xE0, 
  0xFF, 0x3F, 0x00, 0x00, 0x00, 0xC0, 0x1F, 0x00, 0xE0, 0x3F, 0x00, 0x00, 
  0x00, 0xF0, 0xFF, 0x1D, 0x00, 0x00, 0xF0, 0xFF, 0x3F, 0x00, 0x00, 0x00, 
  0xC0, 0x3F, 0x00, 0xE0, 0x1F, 0x00, 0x00, 0x00, 0xF0, 0xFF, 0x3F, 0x00, 
  0x00, 0xE0, 0xFF, 0x3F, 0x00, 0x00, 0x00, 0xC0, 0x3F, 0x00, 0xE0, 0x1F, 
  0x00, 0x00, 0x00, 0xF0, 0x7F, 0x3F, 0x00, 0x00, 0xF0, 0xFF, 0x7F, 0x00, 
  0x00, 0x00, 0x80, 0x7F, 0x00, 0xF0, 0x0F, 0x00, 0x00, 0x00, 0xF8, 0xFF, 
  0x7F, 0x00, 0x00, 0xF0, 0xFF, 0x7F, 0x00, 0x00, 0x00, 0x80, 0x7F, 0x00, 
  0xF0, 0x0F, 0x00, 0x00, 0x00, 0xF8, 0xDF, 0x3F, 0x00, 0x00, 0xF0, 0xFF, 
  0x7F, 0x00, 0x00, 0x00, 0x00, 0xFF, 0x00, 0xF8, 0x07, 0x00, 0x00, 0x00, 
  0xF8, 0xFF, 0x3F, 0x00, 0x00, 0xF0, 0xFF, 0x7F, 0x00, 0x00, 0x00, 0x00, 
  0xFF, 0x00, 0xF8, 0x07, 0x00, 0x00, 0x00, 0xF8, 0xF7, 0x7F, 0x00, 0x00, 
  0xF0, 0xFF, 0x7F, 0x00, 0x00, 0x00, 0x00, 0xFF, 0x00, 0xF8, 0x07, 0x00, 
  0x00, 0x00, 0xF8, 0xFF, 0x7F, 0x00, 0x00, 0xF0, 0xFF, 0x7F, 0x00, 0x00, 
  0x00, 0x00, 0xFE, 0x01, 0xFC, 0x03, 0x00, 0x00, 0x00, 0xFC, 0xFF, 0x7F, 
  0x00, 0x00, 0xF8, 0xFF, 0xFF, 0x00, 0x00, 0x00, 0x00, 0xFE, 0x01, 0xFC, 
  0x03, 0x00, 0x00, 0x00, 0xF8, 0xFE, 0x7F, 0x00, 0x00, 0xF0, 0xFF, 0x7F, 
  0x00, 0x00, 0x00, 0x00, 0xFC, 0x03, 0xFC, 0x03, 0x00, 0x00, 0x00, 0x78, 
  0xFF, 0x7F, 0x00, 0x00, 0xF0, 0xFF, 0xFF, 0x00, 0x00, 0x00, 0x00, 0xFC, 
  0x03, 0xFC, 0x01, 0x00, 0x00, 0x00, 0xF8, 0xFF, 0x7F, 0x00, 0x00, 0xF8, 
  0xFF, 0x7F, 0x00, 0x00, 0x00, 0x00, 0xFC, 0x03, 0xFC, 0x01, 0x00, 0x00, 
  0x00, 0xD8, 0xFF, 0x7F, 0x00, 0x00, 0xF8, 0xFF, 0x7F, 0x00, 0x00, 0x00, 
  0x00, 0xF8, 0x03, 0xFE, 0x01, 0x00, 0x00, 0x00, 0xF8, 0xFF, 0x7F, 0x00, 
  0x00, 0xF0, 0xFF, 0xFF, 0x00, 0x00, 0x00, 0x00, 0xF8, 0x03, 0xFE, 0x01, 
  0x00, 0x00, 0x00, 0xF8, 0xFF, 0x3F, 0x00, 0x00, 0xF0, 0xFF, 0x7F, 0x00, 
  0x00, 0x00, 0x00, 0xF8, 0x07, 0xFE, 0x00, 0x00, 0x00, 0x00, 0xF8, 0xFF, 
  0x3F, 0x00, 0x00, 0xF0, 0xFF, 0x7F, 0x00, 0x00, 0x00, 0x00, 0xF8, 0x07, 
  0xFE, 0x00, 0x00, 0x00, 0x00, 0xF8, 0xFF, 0x3F, 0x00, 0x00, 0xF0, 0xFF, 
  0x7F, 0x00, 0x00, 0x00, 0x00, 0xF0, 0x07, 0xFF, 0x00, 0x00, 0x00, 0x00, 
  0xF8, 0xFF, 0x3F, 0x00, 0x00, 0xF0, 0xFF, 0x7F, 0x00, 0x00, 0x00, 0x00, 
  0xF0, 0x07, 0xFF, 0x00, 0x00, 0x00, 0x00, 0xF0, 0xFF, 0x3F, 0x00, 0x00, 
  0xF0, 0xFF, 0x3F, 0x00, 0x00, 0x00, 0x00, 0xF0, 0x0F, 0x7F, 0x00, 0x00, 
  0x00, 0x00, 0xF0, 0xFF, 0x3F, 0x00, 0x00, 0xE0, 0xFF, 0x3F, 0x00, 0x00, 
  0x00, 0x00, 0xF0, 0x0F, 0xFF, 0x00, 0x00, 0x00, 0x00, 0xF0, 0xFF, 0x1F, 
  0x00, 0x00, 0xE0, 0xFF, 0x3F, 0x00, 0x00, 0x00, 0x00, 0xF0, 0x0F, 0x7F, 
  0x00, 0x00, 0x00, 0x00, 0xE0, 0xFF, 0x1F, 0x00, 0x00, 0xE0, 0xFF, 0x3F, 
  0x00, 0x00, 0x00, 0x00, 0xE0, 0x0F, 0x7F, 0x00, 0x00, 0x00, 0x00, 0xE0, 
  0xFF, 0x1F, 0x00, 0x00, 0xC0, 0xFF, 0x1F, 0x00, 0x00, 0x00, 0x00, 0xF0, 
  0x0F, 0x7F, 0x00, 0x00, 0x00, 0x00, 0xE0, 0xFF, 0x0F, 0x00, 0x00, 0xC0, 
  0xFF, 0x1F, 0x00, 0x00, 0x00, 0x00, 0xE0, 0x0F, 0x7F, 0x00, 0x00, 0x00, 
  0x00, 0xC0, 0xFF, 0x0F, 0x00, 0x00, 0xC0, 0xFF, 0x1F, 0x00, 0x00, 0x00, 
  0x00, 0xE0, 0x0F, 0x3F, 0x00, 0x00, 0x00, 0x00, 0xC0, 0xFF, 0x0F, 0x00, 
  0x00, 0x80, 0xFF, 0x0F, 0x00, 0x00, 0x00, 0x00, 0xE0, 0x0F, 0x7F, 0x00, 
  0x00, 0x00, 0x00, 0x80, 0xFF, 0x07, 0x00, 0x00, 0x00, 0xFF, 0x07, 0x00, 
  0x00, 0x00, 0x00, 0xE0, 0x0F, 0x7F, 0x00, 0x00, 0x00, 0x00, 0x00, 0xFF, 
  0x03, 0x00, 0x00, 0x00, 0xFF, 0x07, 0x00, 0x00, 0x00, 0x00, 0xE0, 0x0F, 
  0x7F, 0x00, 0x00, 0x00, 0x00, 0x00, 0xFE, 0x01, 0x00, 0x00, 0x00, 0xFE, 
  0x03, 0x00, 0x00, 0x00, 0x00, 0xE0, 0x1F, 0x7F, 0x00, 0x00, 0x00, 0x00, 
  0x00, 0xFC, 0x00, 0x00, 0x00, 0x00, 0xF8, 0x00, 0x00, 0x00, 0x00, 0x00, 
  0xE0, 0x0F, 0x3F, 0x00, 0x00, 0x00, 0x00, 0x00, 0x18, 0x00, 0x00, 0x00, 
  0x00, 0x20, 0x00, 0x00, 0x00, 0x00, 0x00, 0xE0, 0x0F, 0x7F, 0x00, 0x00, 
  0x00, 0x00, 0x00, 0x00, 0x00, 0x00, 0x00, 0x00, 0x00, 0x00, 0x00, 0x00, 
  0x00, 0x00, 0xE0, 0x0F, 0x7F, 0x00, 0x00, 0x00, 0x00, 0x00, 0x00, 0x00, 
  0x00, 0x00, 0x00, 0x00, 0x00, 0x00, 0x00, 0x00, 0x00, 0xE0, 0x0F, 0x7F, 
  0x00, 0x00, 0x00, 0x00, 0x00, 0x00, 0x00, 0x00, 0x00, 0x00, 0x00, 0x00, 
  0x00, 0x00, 0x00, 0x00, 0xE0, 0x0F, 0x7F, 0x00, 0x00, 0x00, 0x00, 0x00, 
  0x00, 0x00, 0x00, 0x00, 0x00, 0x00, 0x00, 0x00, 0x00, 0x00, 0x00, 0xE0, 
  0x1F, 0x7F, 0x00, 0x00, 0x00, 0x00, 0x00, 0x00, 0x00, 0x00, 0x00, 0x00, 
  0x00, 0x00, 0x00, 0x00, 0x00, 0x00, 0xE0, 0x0F, 0x7F, 0x00, 0x00, 0x00, 
  0x00, 0x00, 0x00, 0x00, 0x00, 0x00, 0x00, 0x00, 0x00, 0x00, 0x00, 0x00, 
  0x00, 0xE0, 0x0F, 0x7F, 0x00, 0x00, 0x00, 0x00, 0x00, 0x00, 0x00, 0x00, 
  0x00, 0x00, 0x00, 0x00, 0x00, 0x00, 0x00, 0x00, 0xE0, 0x0F, 0x7F, 0x00, 
  0x00, 0x00, 0x00, 0x00, 0x00, 0x00, 0x00, 0x00, 0x00, 0x00, 0x00, 0x00, 
  0x00, 0x00, 0x00, 0xE0, 0x0F, 0xFF, 0x00, 0x00, 0x00, 0x00, 0x00, 0x00, 
  0x00, 0x00, 0x00, 0x00, 0x00, 0x00, 0x00, 0x00, 0x00, 0x00, 0xE0, 0x0F, 
  0x7F, 0x00, 0x00, 0x00, 0x00, 0x00, 0x00, 0x00, 0x00, 0x00, 0x00, 0x00, 
  0x00, 0x00, 0x00, 0x00, 0x00, 0xF0, 0x0F, 0xFF, 0x00, 0x00, 0xF0, 0x03, 
  0x00, 0x00, 0x00, 0x00, 0x00, 0x00, 0x00, 0x00, 0x00, 0xFC, 0x00, 0x00, 
  0xF0, 0x0F, 0xFF, 0x00, 0x00, 0xF0, 0x3F, 0x00, 0x00, 0x00, 0x00, 0x00, 
  0x00, 0x00, 0x00, 0xE0, 0xFF, 0x01, 0x00, 0xF0, 0x07, 0xFE, 0x00, 0x00, 
  0xF8, 0xFF, 0x07, 0x00, 0x00, 0x00, 0x00, 0x00, 0x00, 0x00, 0xFC, 0xFF, 
  0x01, 0x00, 0xF0, 0x07, 0xFE, 0x00, 0x00, 0xF8, 0xFF, 0xBF, 0x00, 0x00, 
  0x00, 0x00, 0x00, 0x00, 0xD0, 0xFF, 0xFF, 0x01, 0x00, 0xF0, 0x07, 0xFE, 
  0x01, 0x00, 0xF8, 0xFF, 0xFF, 0x1F, 0x00, 0x00, 0x00, 0x00, 0x40, 0xFF, 
  0xFF, 0xFF, 0x01, 0x00, 0xF8, 0x07, 0xFE, 0x01, 0x00, 0xF8, 0xFF, 0xFF, 
  0xFF, 0x5F, 0x49, 0x49, 0xE9, 0xFE, 0xFF, 0xFF, 0xFF, 0x01, 0x00, 0xF8, 
  0x07, 0xFE, 0x01, 0x00, 0xF8, 0xFF, 0xFF, 0xFF, 0xFF, 0xFF, 0xFF, 0xFF, 
  0xFF, 0xFF, 0xFF, 0xFF, 0x01, 0x00, 0xF8, 0x03, 0xFC, 0x01, 0x00, 0xF8, 
  0xFF, 0xFF, 0xFF, 0xFF, 0xFF, 0xFF, 0xFF, 0xFF, 0xFF, 0xFF, 0xFF, 0x01, 
  0x00, 0xFC, 0x03, 0xFC, 0x01, 0x00, 0xF0, 0xFF, 0xFF, 0xFF, 0xFF, 0xFF, 
  0xFF, 0xFF, 0xFF, 0xFF, 0xFF, 0xFF, 0x00, 0x00, 0xF8, 0x03, 0xFC, 0x01, 
  0x00, 0xF0, 0xFF, 0xFF, 0xFF, 0xFF, 0xFF, 0xFF, 0xFF, 0xFF, 0xFF, 0xFF, 
  0xFF, 0x00, 0x00, 0xFC, 0x03, 0xBC, 0x03, 0x00, 0xF0, 0xFF, 0xFF, 0xFF, 
  0xFF, 0xFF, 0xFF, 0xFF, 0xFF, 0xFF, 0xFF, 0xFF, 0x00, 0x00, 0xFC, 0x01, 
  0xFC, 0x03, 0x00, 0xF0, 0xFF, 0xFF, 0xFF, 0xFF, 0xFF, 0xFF, 0xFF, 0xFF, 
  0xFF, 0xFF, 0xFF, 0x00, 0x00, 0xFE, 0x01, 0xE8, 0x07, 0x00, 0xE0, 0xFF, 
  0xFF, 0xFF, 0xFF, 0xFF, 0xFF, 0xFF, 0xFF, 0xFF, 0xFF, 0x7F, 0x00, 0x00, 
  0xFE, 0x01, 0xF8, 0x07, 0x00, 0xE0, 0xFF, 0xFF, 0xFF, 0xFF, 0xFF, 0xFF, 
  0xFF, 0xFF, 0xFF, 0xFF, 0x7F, 0x00, 0x00, 0xFF, 0x00, 0xF0, 0x07, 0x00, 
  0xE0, 0xFF, 0xFF, 0xFF, 0xFF, 0xFF, 0xFF, 0xFF, 0xFF, 0xFF, 0xFF, 0x7F, 
  0x00, 0x00, 0xFF, 0x00, 0xF0, 0x0F, 0x00, 0xC0, 0xFF, 0xFF, 0xFF, 0xFF, 
  0xFF, 0xFF, 0xFF, 0xFF, 0xFF, 0xFF, 0x3F, 0x00, 0x00, 0xFF, 0x00, 0xE0, 
  0x0F, 0x00, 0xC0, 0xFF, 0xFF, 0xFF, 0xFF, 0xFF, 0xFF, 0xFF, 0xFF, 0xFF, 
  0xFF, 0x3F, 0x00, 0x80, 0x7F, 0x00, 0xA0, 0x1F, 0x00, 0x80, 0xFF, 0xFF, 
  0xFF, 0xFF, 0xFF, 0xFF, 0xFF, 0xFF, 0xFF, 0xFF, 0x1F, 0x00, 0x80, 0x7F, 
  0x00, 0xE0, 0x3F, 0x00, 0x80, 0xFF, 0xFF, 0xFF, 0xFF, 0xFF, 0xFF, 0xFF, 
  0xFF, 0xFF, 0xFF, 0x0F, 0x00, 0xC0, 0x3F, 0x00, 0xE0, 0x3E, 0x00, 0x00, 
  0xFF, 0xFF, 0xFF, 0xFF, 0xFF, 0xFF, 0xFF, 0xFF, 0xFF, 0xFF, 0x0F, 0x00, 
  0xC0, 0x3F, 0x00, 0xC0, 0x3F, 0x00, 0x00, 0xFE, 0xFF, 0xFF, 0xFF, 0xFF, 
  0xFF, 0xFF, 0xFF, 0xFF, 0xFF, 0x07, 0x00, 0xE0, 0x1F, 0x00, 0x80, 0x7F, 
  0x00, 0x00, 0xFC, 0xFF, 0xFF, 0xFF, 0xFF, 0xFF, 0xFF, 0xFF, 0xFF, 0xFF, 
  0x07, 0x00, 0xE0, 0x1F, 0x00, 0x80, 0xF7, 0x00, 0x00, 0xFC, 0xFF, 0xFF, 
  0xFF, 0xFF, 0xFF, 0xFF, 0xFF, 0xFF, 0xFF, 0x03, 0x00, 0xF0, 0x1F, 0x00, 
  0x00, 0xFF, 0x00, 0x00, 0xF8, 0xFF, 0xFF, 0xFF, 0xFF, 0xFF, 0xFF, 0xFF, 
  0xFF, 0xFF, 0x01, 0x00, 0xF0, 0x0F, 0x00, 0x00, 0xDF, 0x00, 0x00, 0xF8, 
  0xFF, 0xFF, 0xFF, 0xFF, 0xFF, 0xFF, 0xFF, 0xFF, 0xFF, 0x00, 0x00, 0xF8, 
  0x0F, 0x00, 0x00, 0xFE, 0x01, 0x00, 0xE0, 0xFF, 0xFF, 0xFF, 0xFF, 0xFF, 
  0xFF, 0xFF, 0xFF, 0x7F, 0x00, 0x00, 0xFC, 0x07, 0x00, 0x00, 0x7E, 0x03, 
  0x00, 0xE0, 0xFF, 0xFF, 0xFF, 0xFF, 0xFF, 0xFF, 0xFF, 0xFF, 0x3F, 0x00, 
  0x00, 0xFC, 0x03, 0x00, 0x00, 0xFC, 0x07, 0x00, 0xC0, 0xFF, 0xFF, 0xFF, 
  0xFF, 0xFF, 0xFF, 0xFF, 0xFF, 0x1F, 0x00, 0x00, 0xFE, 0x03, 0x00, 0x00, 
  0xFC, 0x05, 0x00, 0x00, 0xFF, 0xFF, 0xFF, 0xFF, 0xFF, 0xFF, 0xFF, 0xFF, 
  0x0F, 0x00, 0x00, 0xFE, 0x01, 0x00, 0x00, 0xF8, 0x0F, 0x00, 0x00, 0xFE, 
  0xFF, 0xFF, 0xFF, 0xFF, 0xFF, 0xFF, 0xFF, 0x0F, 0x00, 0x00, 0xFF, 0x01, 
  0x00, 0x00, 0xF8, 0x17, 0x00, 0x00, 0xFC, 0xFF, 0xFF, 0xFF, 0xFF, 0xFF, 
  0xFF, 0xFF, 0x03, 0x00, 0x80, 0xFF, 0x00, 0x00, 0x00, 0xF0, 0x1F, 0x00, 
  0x00, 0xF8, 0xFF, 0xFF, 0xFF, 0xFF, 0xFF, 0xFF, 0xFF, 0x01, 0x00, 0xC0, 
  0x7F, 0x00, 0x00, 0x00, 0xE0, 0x7F, 0x00, 0x00, 0xE0, 0xFF, 0xFF, 0xFF, 
  0xFF, 0xFF, 0xFF, 0x7F, 0x00, 0x00, 0xE0, 0x7F, 0x00, 0x00, 0x00, 0xC0, 
  0x3F, 0x00, 0x00, 0xC0, 0xFF, 0xFF, 0xFF, 0xFF, 0xFF, 0xFF, 0x3F, 0x00, 
  0x00, 0xF0, 0x3F, 0x00, 0x00, 0x00, 0x80, 0xFF, 0x00, 0x00, 0x00, 0xFF, 
  0xFF, 0xFF, 0xFF, 0xFF, 0xFF, 0x0F, 0x00, 0x00, 0xF0, 0x1F, 0x00, 0x00, 
  0x00, 0x80, 0xFF, 0x01, 0x00, 0x00, 0xFC, 0xFF, 0xFF, 0xFF, 0xFF, 0xFF, 
  0x03, 0x00, 0x00, 0xFC, 0x0F, 0x00, 0x00, 0x00, 0x00, 0xFF, 0x01, 0x00, 
  0x00, 0xF8, 0xFF, 0xFF, 0xFF, 0xFF, 0xFF, 0x01, 0x00, 0x00, 0xFC, 0x0F, 
  0x00, 0x00, 0x00, 0x00, 0xFE, 0x07, 0x00, 0x00, 0xE0, 0xFF, 0xFF, 0xFF, 
  0xFF, 0x7F, 0x00, 0x00, 0x00, 0xFE, 0x07, 0x00, 0x00, 0x00, 0x00, 0xFC, 
  0x07, 0x00, 0x00, 0x00, 0xFF, 0xFF, 0xFF, 0xFF, 0x0F, 0x00, 0x00, 0x00, 
  0xFF, 0x03, 0x00, 0x00, 0x00, 0x00, 0xFC, 0x1F, 0x00, 0x00, 0x00, 0xF8, 
  0xFF, 0xFF, 0xFF, 0x01, 0x00, 0x00, 0x80, 0xFF, 0x01, 0x00, 0x00, 0x00, 
  0x00, 0xF0, 0x3F, 0x00, 0x00, 0x00, 0xC0, 0xFF, 0xFF, 0x3F, 0x00, 0x00, 
  0x00, 0xE0, 0xFF, 0x00, 0x00, 0x00, 0x00, 0x00, 0xE0, 0x7F, 0x00, 0x00, 
  0x00, 0x00, 0xF4, 0xFF, 0x01, 0x00, 0x00, 0x00, 0xF0, 0x7F, 0x00, 0x00, 
  0x00, 0x00, 0x00, 0xE0, 0xFF, 0x01, 0x00, 0x00, 0x00, 0x00, 0x00, 0x00, 
  0x00, 0x00, 0x00, 0xF8, 0x3F, 0x00, 0x00, 0x00, 0x00, 0x00, 0x80, 0xFF, 
  0x07, 0x00, 0x00, 0x00, 0x00, 0x00, 0x00, 0x00, 0x00, 0x00, 0xFC, 0x1F, 
  0x00, 0x00, 0x00, 0x00, 0x00, 0x80, 0xFF, 0x05, 0x00, 0x00, 0x00, 0x00, 
  0x00, 0x00, 0x00, 0x00, 0x00, 0xFF, 0x0F, 0x00, 0x00, 0x00, 0x00, 0x00, 
  0x00, 0xFE, 0x1F, 0x00, 0x00, 0x00, 0x00, 0x00, 0x00, 0x00, 0x00, 0x80, 
  0xFF, 0x07, 0x00, 0x00, 0x00, 0x00, 0x00, 0x00, 0xFC, 0x77, 0x00, 0x00, 
  0x00, 0x00, 0x00, 0x00, 0x00, 0x00, 0xE0, 0xFF, 0x03, 0x00, 0x00, 0x00, 
  0x00, 0x00, 0x00, 0xF8, 0xEF, 0x00, 0x00, 0x00, 0x00, 0x00, 0x00, 0x00, 
  0x00, 0xF8, 0xFF, 0x01, 0x00, 0x00, 0x00, 0x00, 0x00, 0x00, 0xF0, 0xFF, 
  0x03, 0x00, 0x00, 0x00, 0x00, 0x00, 0x00, 0x00, 0xFC, 0x7F, 0x00, 0x00, 
  0x00, 0x00, 0x00, 0x00, 0x00, 0xC0, 0xBF, 0x0F, 0x00, 0x00, 0x00, 0x00, 
  0x00, 0x00, 0x00, 0xFF, 0x3F, 0x00, 0x00, 0x00, 0x00, 0x00, 0x00, 0x00, 
  0x80, 0xFF, 0x3F, 0x00, 0x00, 0x00, 0x00, 0x00, 0x00, 0xC0, 0xFF, 0x1F, 
  0x00, 0x00, 0x00, 0x00, 0x00, 0x00, 0x00, 0x00, 0xFE, 0xFF, 0x00, 0x00, 
  0x00, 0x00, 0x00, 0x00, 0xF0, 0xFF, 0x07, 0x00, 0x00, 0x00, 0x00, 0x00, 
  0x00, 0x00, 0x00, 0xFC, 0xFF, 0x03, 0x00, 0x00, 0x00, 0x00, 0x00, 0xFE, 
  0xFF, 0x03, 0x00, 0x00, 0x00, 0x00, 0x00, 0x00, 0x00, 0x00, 0xF0, 0xFB, 
  0x7F, 0x00, 0x00, 0x00, 0x00, 0xE0, 0xFF, 0xFF, 0x00, 0x00, 0x00, 0x00, 
  0x00, 0x00, 0x00, 0x00, 0x00, 0xC0, 0xFF, 0xFF, 0x01, 0x00, 0x00, 0x00, 
  0xFC, 0xFF, 0x3F, 0x00, 0x00, 0x00, 0x00, 0x00, 0x00, 0x00, 0x00, 0x00, 
  0x80, 0xFF, 0xFF, 0x5F, 0x00, 0x00, 0xE0, 0xFF, 0xFF, 0x0F, 0x00, 0x00, 
  0x00, 0x00, 0x00, 0x00, 0x00, 0x00, 0x00, 0x00, 0xDC, 0xFF, 0xFF, 0x5F, 
  0x66, 0xFF, 0xFF, 0xFF, 0x03, 0x00, 0x00, 0x00, 0x00, 0x00, 0x00, 0x00, 
  0x00, 0x00, 0x00, 0xF8, 0xFF, 0xFF, 0xFF, 0xFF, 0xFF, 0xFF, 0xFF, 0x01, 
  0x00, 0x00, 0x00, 0x00, 0x00, 0x00, 0x00, 0x00, 0x00, 0x00, 0x40, 0xFF, 
  0xFF, 0xFF, 0xFF, 0xFF, 0xFF, 0x3F, 0x00, 0x00, 0x00, 0x00, 0x00, 0x00, 
  0x00, 0x00, 0x00, 0x00, 0x00, 0x00, 0xFE, 0xFF, 0xFF, 0xFF, 0xFF, 0xFF, 
  0x07, 0x00, 0x00, 0x00, 0x00, 0x00, 0x00, 0x00, 0x00, 0x00, 0x00, 0x00, 
  0x00, 0xF8, 0xFF, 0xFF, 0xFF, 0xFF, 0xFF, 0x01, 0x00, 0x00, 0x00, 0x00, 
  0x00, 0x00, 0x00, 0x00, 0x00, 0x00, 0x00, 0x00, 0x80, 0xFF, 0xFF, 0xFF, 
  0xFF, 0x0F, 0x00, 0x00, 0x00, 0x00, 0x00, 0x00, 0x00, 0x00, 0x00, 0x00, 
  0x00, 0x00, 0x00, 0x00, 0xF8, 0xFF, 0xFF, 0xFF, 0x01, 0x00, 0x00, 0x00, 
  0x00, 0x00, 0x00, 0x00, 0x00, 0x00, 0x00, 0x00, 0x00, 0x00, 0x00, 0x00, 
  0xFE, 0xFF, 0x03, 0x00, 0x00, 0x00, 0x00, 0x00, 0x00, 0x00, 0x00, 0x00, 
  0x00, 0x00, 0x00, 0x00, 0x00, 0x00, 0x00, 0x00, 0x00, 0x00, 0x00, 0x00, 
  0x00, 0x00, 0x00, 0x00, 0x00, 0x00, };
