#define pict_65_width 150
#define pict_65_height 150
static char pict_65_bits[] = {
  0x00, 0x00, 0x00, 0x00, 0x00, 0x00, 0x00, 0x00, 0xB8, 0xAD, 0x00, 0x00, 
  0x00, 0x00, 0x00, 0x00, 0x00, 0x00, 0x00, 0x00, 0x00, 0x00, 0x00, 0x00, 
  0x00, 0x00, 0xF4, 0xFF, 0xFF, 0x3F, 0x00, 0x00, 0x00, 0x00, 0x00, 0x00, 
  0x00, 0x00, 0x00, 0x00, 0x00, 0x00, 0x00, 0x00, 0x80, 0xFF, 0xFF, 0xFF, 
  0xFF, 0x07, 0x00, 0x00, 0x00, 0x00, 0x00, 0x00, 0x00, 0x00, 0x00, 0x00, 
  0x00, 0x00, 0x00, 0xF8, 0xFF, 0xFF, 0xFF, 0xFF, 0x7F, 0x00, 0x00, 0x00, 
  0x00, 0x00, 0x00, 0x00, 0x00, 0x00, 0x00, 0x00, 0x00, 0x00, 0xFF, 0xFF, 
  0xFF, 0xFF, 0xFF, 0xFF, 0x01, 0x00, 0x00, 0x00, 0x00, 0x00, 0x00, 0x00, 
  0x00, 0x00, 0x00, 0x00, 0xC0, 0xFF, 0xFF, 0xFF, 0xFF, 0xFF, 0xFF, 0x0F, 
  0x00, 0x00, 0x00, 0x00, 0x00, 0x00, 0x00, 0x00, 0x00, 0x00, 0x00, 0xF8, 
  0xFF, 0xFF, 0xFF, 0xFF, 0xFF, 0xFF, 0x7F, 0x00, 0x00, 0x00, 0x00, 0x00, 
  0x00, 0x00, 0x00, 0x00, 0x00, 0x00, 0xFE, 0xFF, 0xFF, 0xFF, 0xFF, 0xFF, 
  0xFF, 0xFF, 0x01, 0x00, 0x00, 0x00, 0x00, 0x00, 0x00, 0x00, 0x00, 0x00, 
  0x80, 0xFF, 0xFF, 0x3F, 0x00, 0x00, 0xEC, 0xFF, 0xFF, 0x07, 0x00, 0x00, 
  0x00, 0x00, 0x00, 0x00, 0x00, 0x00, 0x00, 0xE0, 0xFF, 0xFF, 0x03, 0x00, 
  0x00, 0x00, 0xFF, 0xFF, 0x1F, 0x00, 0x00, 0x00, 0x00, 0x00, 0x00, 0x00, 
  0x00, 0x00, 0xF0, 0xFF, 0x3F, 0x00, 0x00, 0x00, 0x00, 0xF0, 0xFF, 0x3F, 
  0x00, 0x00, 0x00, 0x00, 0x00, 0x00, 0x00, 0x00, 0x00, 0xFC, 0xFF, 0x07, 
  0x00, 0x00, 0x00, 0x00, 0x80, 0xFF, 0xFF, 0x00, 0x00, 0x00, 0x00, 0x00, 
  0x00, 0x00, 0x00, 0x00, 0xFF, 0xFF, 0x01, 0x00, 0x00, 0x00, 0x00, 0x00, 
  0xFE, 0xFF, 0x01, 0x00, 0x00, 0x00, 0x00, 0x00, 0x00, 0x00, 0xC0, 0xFF, 
  0x3F, 0x00, 0x00, 0x00, 0x00, 0x00, 0x00, 0xF0, 0xFF, 0x0F, 0x00, 0x00, 
  0x00, 0x00, 0x00, 0x00, 0x00, 0xE0, 0xFF, 0x0F, 0x00, 0x00, 0x00, 0x00, 
  0x00, 0x00, 0xC0, 0xFF, 0x0F, 0x00, 0x00, 0x00, 0x00, 0x00, 0x00, 0x00, 
  0xF0, 0xFF, 0x01, 0x00, 0x00, 0x00, 0x00, 0x00, 0x00, 0x00, 0xFF, 0x3F, 
  0x00, 0x00, 0x00, 0x00, 0x00, 0x00, 0x00, 0xF8, 0xFF, 0x00, 0x00, 0x00, 
  0x00, 0x00, 0x00, 0x00, 0x00, 0xFC, 0x7F, 0x00, 0x00, 0x00, 0x00, 0x00, 
  0x00, 0x00, 0xFE, 0x3F, 0x00, 0x00, 0x00, 0x00, 0x00, 0x00, 0x00, 0x00, 
  0xF8, 0xFF, 0x01, 0x00, 0x00, 0x00, 0x00, 0x00, 0x00, 0xFF, 0x1F, 0x00, 
  0x00, 0x00, 0x00, 0x00, 0x00, 0x00, 0x00, 0xE0, 0xFF, 0x01, 0x00, 0x00, 
  0x00, 0x00, 0x00, 0x80, 0xFF, 0x07, 0x00, 0x00, 0x00, 0x00, 0x00, 0x00, 
  0x00, 0x00, 0xC0, 0xFF, 0x03, 0x00, 0x00, 0x00, 0x00, 0x00, 0xC0, 0xFF, 
  0x03, 0x00, 0x00, 0x00, 0x00, 0x00, 0x00, 0x00, 0x00, 0x00, 0xFF, 0x0F, 
  0x00, 0x00, 0x00, 0x00, 0x00, 0xE0, 0xFF, 0x00, 0x00, 0x00, 0x00, 0x00, 
  0x00, 0x00, 0x00, 0x00, 0x00, 0xFC, 0x1F, 0x00, 0x00, 0x00, 0x00, 0x00, 
  0xF0, 0x7F, 0x00, 0x00, 0x00, 0x00, 0x00, 0x00, 0x00, 0x00, 0x00, 0x00, 
  0xFC, 0x3F, 0x00, 0x00, 0x00, 0x00, 0x00, 0xF8, 0x3F, 0x00, 0x00, 0x00, 
  0x00, 0x00, 0x00, 0x00, 0x00, 0x00, 0x00, 0xF0, 0x7F, 0x00, 0x00, 0x00, 
  0x00, 0x00, 0xFC, 0x1F, 0x00, 0x00, 0x00, 0x00, 0x00, 0x00, 0x00, 0x00, 
  0x00, 0x00, 0xE0, 0xFF, 0x00, 0x00, 0x00, 0x00, 0x00, 0xFE, 0x07, 0x00, 
  0x00, 0x00, 0x00, 0x00, 0x00, 0x00, 0x00, 0x00, 0x00, 0x80, 0xFF, 0x01, 
  0x00, 0x00, 0x00, 0x00, 0xFF, 0x07, 0x00, 0x00, 0x00, 0x00, 0x00, 0x00, 
  0x00, 0x00, 0x00, 0x00, 0x80, 0xFF, 0x01, 0x00, 0x00, 0x00, 0x80, 0xFF, 
  0x01, 0x00, 0x00, 0x00, 0x00, 0x00, 0x00, 0x00, 0x00, 0x00, 0x00, 0x00, 
  0xFF, 0x07, 0x00, 0x00, 0x00, 0xC0, 0xFF, 0x00, 0x00, 0x00, 0x00, 0x00, 
  0x00, 0x00, 0x00, 0x00, 0x00, 0x00, 0x00, 0xFE, 0x07, 0x00, 0x00, 0x00, 
  0xC0, 0x7F, 0x00, 0x00, 0x00, 0x00, 0x00, 0x00, 0x00, 0x00, 0x00, 0x00, 
  0x00, 0x00, 0xFC, 0x0F, 0x00, 0x00, 0x00, 0xE0, 0x3F, 0x00, 0x00, 0x00, 
  0x00, 0x00, 0x00, 0x00, 0x00, 0x00, 0x00, 0x00, 0x00, 0xF8, 0x1F, 0x00, 
  0x00, 0x00, 0xF0, 0x3F, 0x00, 0x00, 0x00, 0x00, 0x00, 0x00, 0x00, 0x00, 
  0x00, 0x00, 0x00, 0x00, 0xF0, 0x1F, 0x00, 0x00, 0x00, 0xF8, 0x1F, 0x00, 
  0x00, 0x00, 0x00, 0x00, 0x00, 0x00, 0x00, 0x00, 0x00, 0x00, 0x00, 0xE0, 
  0x7F, 0x00, 0x00, 0x00, 0xF8, 0x0F, 0x00, 0x00, 0x00, 0x00, 0x00, 0x00, 
  0x00, 0x00, 0x00, 0x00, 0x00, 0x00, 0xC0, 0x7F, 0x00, 0x00, 0x00, 0xF8, 
  0x07, 0x00, 0x00, 0x12, 0x00, 0x00, 0x00, 0x00, 0x00, 0x00, 0x24, 0x00, 
  0x00, 0xC0, 0x7F, 0x00, 0x00, 0x00, 0xFE, 0x07, 0x00, 0xF0, 0xFF, 0x01, 
  0x00, 0x00, 0x00, 0x00, 0xC0, 0xFF, 0x07, 0x00, 0x80, 0xFF, 0x00, 0x00, 
  0x00, 0xEE, 0x03, 0x00, 0xFF, 0xFF, 0x03, 0x00, 0x00, 0x00, 0x00, 0xF0, 
  0xFF, 0x3F, 0x00, 0x00, 0xFF, 0x01, 0x00, 0x00, 0xFF, 0x01, 0xC0, 0xFF, 
  0xFF, 0x07, 0x00, 0x00, 0x00, 0x00, 0xF0, 0xFF, 0xFF, 0x00, 0x00, 0xFF, 
  0x01, 0x00, 0x00, 0xFF, 0x00, 0xF0, 0xFF, 0xFF, 0x07, 0x00, 0x00, 0x00, 
  0x00, 0xF8, 0xFF, 0xFF, 0x03, 0x00, 0xFE, 0x03, 0x00, 0x80, 0x7F, 0x00, 
  0xF8, 0xFF, 0xFF, 0x07, 0x00, 0x00, 0x00, 0x00, 0xF0, 0xFF, 0xFF, 0x0F, 
  0x00, 0xFC, 0x07, 0x00, 0x80, 0x7F, 0x00, 0xFE, 0xFF, 0xFF, 0x03, 0x00, 
  0x00, 0x00, 0x00, 0xE0, 0xFF, 0xFF, 0x1F, 0x00, 0xFC, 0x07, 0x00, 0xC0, 
  0x7F, 0x00, 0xFF, 0x3F, 0x80, 0x00, 0x00, 0x00, 0x00, 0x00, 0x80, 0x00, 
  0xFE, 0x3F, 0x00, 0xF8, 0x07, 0x00, 0xE0, 0x3F, 0x80, 0xFF, 0x01, 0x00, 
  0x00, 0x00, 0x00, 0x00, 0x00, 0x00, 0x00, 0xE0, 0x7F, 0x00, 0xF0, 0x0F, 
  0x00, 0xE0, 0x3F, 0x80, 0x7F, 0x00, 0x00, 0x00, 0x00, 0x00, 0x00, 0x00, 
  0x00, 0x00, 0x00, 0xFF, 0x00, 0xF0, 0x1F, 0x00, 0xE0, 0x1F, 0xC0, 0x1F, 
  0x00, 0x00, 0x00, 0x00, 0x00, 0x00, 0x00, 0x00, 0x00, 0x00, 0xFC, 0x01, 
  0xE0, 0x1F, 0x00, 0xF0, 0x1F, 0xC0, 0x07, 0x00, 0x00, 0x00, 0x00, 0x00, 
  0x00, 0x00, 0x00, 0x00, 0x00, 0xF8, 0x01, 0xE0, 0x1F, 0x00, 0xF0, 0x0F, 
  0xE0, 0x01, 0x00, 0x00, 0x00, 0x00, 0x00, 0x00, 0x00, 0x00, 0x00, 0x00, 
  0xE0, 0x01, 0xC0, 0x3F, 0x00, 0xF8, 0x07, 0x60, 0x00, 0x00, 0x00, 0x00, 
  0x00, 0x00, 0x00, 0x00, 0x00, 0x00, 0x00, 0x80, 0x03, 0xC0, 0x3F, 0x00, 
  0xF8, 0x07, 0x40, 0x00, 0xF0, 0x0F, 0x00, 0x00, 0x00, 0x00, 0x00, 0x00, 
  0xFA, 0x06, 0x00, 0x01, 0x80, 0x7F, 0x00, 0xF8, 0x07, 0x00, 0x00, 0xFE, 
  0xFF, 0x03, 0x00, 0x00, 0x00, 0x00, 0xE0, 0xFF, 0x3F, 0x00, 0x00, 0x80, 
  0x7F, 0x00, 0xFC, 0x03, 0x00, 0xC0, 0xFF, 0xFF, 0x07, 0x00, 0x00, 0x00, 
  0x00, 0xF8, 0xFF, 0xFF, 0x01, 0x00, 0x80, 0x7F, 0x00, 0xFC, 0x03, 0x00, 
  0xF0, 0xFF, 0xFF, 0x3F, 0x00, 0x00, 0x00, 0x00, 0xFE, 0xFF, 0xFF, 0x03, 
  0x00, 0x00, 0xFF, 0x00, 0xFC, 0x01, 0x00, 0xFC, 0xFF, 0xFF, 0x7F, 0x00, 
  0x00, 0x00, 0x80, 0xFF, 0xFF, 0xFF, 0x0F, 0x00, 0x00, 0xFF, 0x00, 0xFE, 
  0x01, 0x00, 0xFE, 0xFF, 0xFF, 0xFF, 0x01, 0x00, 0x00, 0xC0, 0xFF, 0xFF, 
  0xFF, 0x3F, 0x00, 0x00, 0xFF, 0x00, 0xFE, 0x01, 0x80, 0xBF, 0xFF, 0xFF, 
  0xFF, 0x03, 0x00, 0x00, 0xF0, 0xFF, 0xFF, 0xFF, 0x7F, 0x00, 0x00, 0xFE, 
  0x01, 0xFE, 0x00, 0x80, 0xFF, 0x7F, 0xFA, 0xFF, 0x07, 0x00, 0x00, 0xF8, 
  0xFF, 0x5F, 0xFF, 0xFF, 0x00, 0x00, 0xFE, 0x01, 0xFF, 0x00, 0xE0, 0xFF, 
  0x07, 0x80, 0xFF, 0x0F, 0x00, 0x00, 0xFC, 0xFF, 0x00, 0xF0, 0xFF, 0x01, 
  0x00, 0xFE, 0x01, 0xFE, 0x00, 0xE0, 0xFF, 0x00, 0x00, 0xFE, 0x1F, 0x00, 
  0x00, 0xFE, 0x1F, 0x00, 0xC0, 0xFF, 0x03, 0x00, 0xFC, 0x01, 0xFF, 0x00, 
  0xF0, 0x7F, 0x00, 0x00, 0xF8, 0x3F, 0x00, 0x00, 0xFE, 0x0F, 0x00, 0x80, 
  0xFF, 0x07, 0x00, 0xFC, 0x03, 0xFF, 0x00, 0xF8, 0x1F, 0x00, 0x00, 0xF0, 
  0x7F, 0x00, 0x00, 0xFF, 0x03, 0x00, 0x00, 0xFE, 0x07, 0x00, 0xFC, 0x03, 
  0x7F, 0x00, 0xF8, 0x0F, 0x00, 0x00, 0xC0, 0x7F, 0x00, 0x80, 0xFF, 0x01, 
  0x00, 0x00, 0xFC, 0x0F, 0x00, 0xFC, 0x03, 0x7F, 0x00, 0xFC, 0x07, 0x00, 
  0x00, 0x80, 0xFF, 0x00, 0x80, 0xFF, 0x00, 0x00, 0x00, 0xF0, 0x1F, 0x00, 
  0xF8, 0x03, 0x7F, 0x00, 0xFE, 0x03, 0x00, 0x00, 0x80, 0xFF, 0x00, 0xC0, 
  0x7F, 0x00, 0x00, 0x00, 0xF0, 0x1F, 0x00, 0xF8, 0x03, 0x7F, 0x00, 0xFF, 
  0x01, 0x00, 0x00, 0x00, 0xFF, 0x01, 0xC0, 0x3F, 0x00, 0x00, 0x00, 0xE0, 
  0x3F, 0x00, 0xF8, 0x07, 0x3F, 0x00, 0xFF, 0x01, 0x00, 0x00, 0x00, 0xFE, 
  0x01, 0xE0, 0x1F, 0x00, 0x00, 0x00, 0xC0, 0x3F, 0x00, 0xF8, 0x07, 0x7F, 
  0x00, 0xFF, 0x00, 0x00, 0x00, 0x00, 0xFC, 0x03, 0xE0, 0x1F, 0x00, 0x00, 
  0x00, 0x80, 0x7F, 0x00, 0xF0, 0x07, 0x3F, 0x80, 0x7F, 0x00, 0x00, 0x00, 
  0x00, 0xFC, 0x07, 0xF0, 0x0F, 0x00, 0x00, 0x00, 0x80, 0x7F, 0x00, 0xF0, 
  0x07, 0x3F, 0x80, 0x7F, 0x00, 0x80, 0x02, 0x00, 0xF8, 0x03, 0xF0, 0x0F, 
  0x00, 0x60, 0x00, 0x00, 0xFF, 0x00, 0xF8, 0x07, 0x3F, 0x80, 0x7F, 0x00, 
  0xE0, 0x1F, 0x00, 0xF8, 0x07, 0xF0, 0x0F, 0x00, 0xFC, 0x03, 0x00, 0xFF, 
  0x00, 0xF0, 0x07, 0x3F, 0x80, 0x3F, 0x00, 0xF0, 0x1F, 0x00, 0xF8, 0x07, 
  0xF0, 0x07, 0x00, 0xFF, 0x07, 0x00, 0xFF, 0x00, 0xF0, 0x07, 0x3F, 0x80, 
  0x3F, 0x00, 0xF8, 0x7F, 0x00, 0xF0, 0x07, 0xF8, 0x07, 0x00, 0xFF, 0x07, 
  0x00, 0xFE, 0x00, 0xF0, 0x07, 0x3F, 0xC0, 0x3F, 0x00, 0xF8, 0x7F, 0x00, 
  0xF0, 0x07, 0xF8, 0x07, 0x80, 0xFF, 0x0F, 0x00, 0xFE, 0x00, 0xF0, 0x07, 
  0x3F, 0x80, 0x3F, 0x00, 0xFC, 0xFF, 0x00, 0xF0, 0x07, 0xF8, 0x07, 0x80, 
  0xFF, 0x0F, 0x00, 0xFE, 0x01, 0xF0, 0x07, 0x3F, 0xC0, 0x3F, 0x00, 0xFE, 
  0xFF, 0x00, 0xF0, 0x0F, 0xF8, 0x03, 0x80, 0xFF, 0x1F, 0x00, 0xFE, 0x00, 
  0xF0, 0x07, 0x1F, 0xC0, 0x1F, 0x00, 0xFC, 0xFF, 0x00, 0xF0, 0x07, 0xF8, 
  0x03, 0x80, 0xFF, 0x1F, 0x00, 0xFE, 0x00, 0xF0, 0x07, 0x3F, 0x80, 0x3F, 
  0x00, 0xFC, 0xFF, 0x00, 0xF0, 0x0F, 0xF8, 0x03, 0xC0, 0xFF, 0x1F, 0x00, 
  0xFE, 0x00, 0xF0, 0x0F, 0x3F, 0xC0, 0x3F, 0x00, 0xFC, 0xFF, 0x00, 0xF0, 
  0x0F, 0xF8, 0x03, 0x80, 0xFF, 0x1F, 0x00, 0xFE, 0x00, 0xF0, 0x07, 0x3F, 
  0x80, 0x3F, 0x00, 0xFC, 0xFF, 0x00, 0xF0, 0x07, 0xF8, 0x07, 0x80, 0xFF, 
  0x0F, 0x00, 0xFE, 0x00, 0xF0, 0x0F, 0x3F, 0xC0, 0x3F, 0x00, 0xFC, 0x7F, 
  0x00, 0xF0, 0x07, 0xF8, 0x07, 0x80, 0xFF, 0x0F, 0x00, 0xFF, 0x00, 0xF0, 
  0x07, 0x3F, 0x80, 0x3F, 0x00, 0xF0, 0x3F, 0x00, 0xF8, 0x07, 0xF8, 0x07, 
  0x00, 0xFF, 0x07, 0x00, 0xFE, 0x00, 0xF0, 0x07, 0x3F, 0x80, 0x3F, 0x00, 
  0xF0, 0x1F, 0x00, 0xF8, 0x07, 0xF0, 0x07, 0x00, 0xFE, 0x03, 0x00, 0xFF, 
  0x00, 0xF0, 0x07, 0x3F, 0x80, 0x7F, 0x00, 0x80, 0x07, 0x00, 0xF8, 0x07, 
  0xF0, 0x0F, 0x00, 0xF8, 0x01, 0x00, 0xFF, 0x00, 0xF0, 0x07, 0x3F, 0x80, 
  0x7F, 0x00, 0x00, 0x00, 0x00, 0xF8, 0x07, 0xF0, 0x0F, 0x00, 0x00, 0x00, 
  0x80, 0x7F, 0x00, 0xF8, 0x07, 0x3F, 0x00, 0xFF, 0x00, 0x00, 0x00, 0x00, 
  0xFC, 0x03, 0xF0, 0x1F, 0x00, 0x00, 0x00, 0x80, 0x7F, 0x00, 0xF0, 0x07, 
  0x3F, 0x00, 0xFF, 0x00, 0x00, 0x00, 0x00, 0xEE, 0x03, 0xE0, 0x1F, 0x00, 
  0x00, 0x00, 0xC0, 0x7F, 0x00, 0xF0, 0x07, 0x7F, 0x00, 0xFF, 0x01, 0x00, 
  0x00, 0x00, 0xFE, 0x01, 0xE0, 0x1F, 0x00, 0x00, 0x00, 0xC0, 0x3F, 0x00, 
  0xF8, 0x07, 0x7F, 0x00, 0xFE, 0x03, 0x00, 0x00, 0x00, 0xFF, 0x01, 0xC0, 
  0x7F, 0x00, 0x00, 0x00, 0xE0, 0x3F, 0x00, 0xF8, 0x07, 0x7F, 0x00, 0xFE, 
  0x07, 0x00, 0x00, 0x80, 0x7F, 0x00, 0xC0, 0xFF, 0x00, 0x00, 0x00, 0xF0, 
  0x1F, 0x00, 0xF8, 0x03, 0x7F, 0x00, 0xFC, 0x07, 0x00, 0x00, 0x80, 0xFF, 
  0x00, 0x80, 0xFF, 0x00, 0x00, 0x00, 0xF8, 0x0F, 0x00, 0xF8, 0x03, 0x7F, 
  0x00, 0xF8, 0x1F, 0x00, 0x00, 0xE0, 0x7F, 0x00, 0x00, 0xFF, 0x01, 0x00, 
  0x00, 0xFC, 0x0F, 0x00, 0xFC, 0x03, 0xFF, 0x00, 0xF8, 0x3F, 0x00, 0x00, 
  0xF0, 0x3F, 0x00, 0x00, 0xFF, 0x07, 0x00, 0x00, 0xFE, 0x07, 0x00, 0xFC, 
  0x03, 0xFF, 0x00, 0xF0, 0x7F, 0x00, 0x00, 0xFC, 0x3F, 0x00, 0x00, 0xFE, 
  0x0F, 0x00, 0x00, 0xFF, 0x07, 0x00, 0xFC, 0x03, 0xFF, 0x00, 0xE0, 0xFF, 
  0x01, 0x00, 0xFF, 0x1F, 0x00, 0x00, 0xFC, 0x3F, 0x00, 0xE0, 0xFF, 0x03, 
  0x00, 0xFC, 0x01, 0xFE, 0x00, 0xC0, 0xFF, 0x2F, 0xE2, 0xFF, 0x0F, 0x00, 
  0x00, 0xF8, 0xFF, 0x05, 0xFE, 0xFF, 0x00, 0x00, 0xFE, 0x01, 0xFE, 0x00, 
  0x80, 0xFF, 0xFF, 0xFF, 0xFF, 0x07, 0x00, 0x00, 0xF0, 0xFF, 0xFF, 0xFF, 
  0xFF, 0x00, 0x00, 0xFE, 0x01, 0xFE, 0x01, 0x00, 0xFF, 0xFF, 0xFF, 0xFF, 
  0x01, 0x00, 0x00, 0xE0, 0xFF, 0xFF, 0xFF, 0x3F, 0x00, 0x00, 0xFE, 0x00, 
  0xFE, 0x01, 0x00, 0xFC, 0xFF, 0xFF, 0xFF, 0x00, 0x00, 0x00, 0xC0, 0xFF, 
  0xFF, 0xFF, 0x1F, 0x00, 0x00, 0xFF, 0x00, 0xFC, 0x01, 0x00, 0xF8, 0xFF, 
  0xFF, 0x7F, 0x00, 0x00, 0x00, 0x00, 0xFF, 0xFF, 0xFF, 0x0F, 0x00, 0x00, 
  0xFF, 0x00, 0xFC, 0x03, 0x00, 0xE0, 0xFF, 0xFF, 0x1F, 0x00, 0x00, 0x00, 
  0x00, 0xFC, 0xFF, 0xFF, 0x01, 0x00, 0x00, 0x7F, 0x00, 0xFC, 0x03, 0x00, 
  0x80, 0xFF, 0xFF, 0x03, 0x00, 0x00, 0x00, 0x00, 0xF0, 0xFF, 0x7F, 0x00, 
  0x00, 0x80, 0x7F, 0x00, 0xF8, 0x07, 0x00, 0x00, 0xFC, 0x7F, 0x00, 0x00, 
  0x00, 0x00, 0x00, 0x80, 0xFF, 0x0F, 0x00, 0x00, 0x80, 0x7F, 0x00, 0xF8, 
  0x07, 0x00, 0x00, 0x00, 0x00, 0x00, 0x00, 0x00, 0x00, 0x00, 0x00, 0x00, 
  0x00, 0x00, 0x00, 0x80, 0x7F, 0x00, 0xF8, 0x0F, 0x00, 0x00, 0x00, 0x00, 
  0x00, 0x00, 0x00, 0x00, 0x00, 0x00, 0x00, 0x00, 0x00, 0x00, 0xC0, 0x3F, 
  0x00, 0xF0, 0x0F, 0x00, 0x00, 0x00, 0x00, 0x00, 0x00, 0x00, 0x00, 0x00, 
  0x00, 0x00, 0x00, 0x00, 0x00, 0xC0, 0x3F, 0x00, 0xF0, 0x1F, 0x00, 0x00, 
  0x00, 0x00, 0x00, 0x00, 0x00, 0x00, 0x00, 0x00, 0x00, 0x00, 0x00, 0x00, 
  0xE0, 0x3F, 0x00, 0xE0, 0x1F, 0x00, 0x00, 0x00, 0x00, 0x00, 0x00, 0x00, 
  0x00, 0x00, 0x00, 0x00, 0x00, 0x00, 0x00, 0xE0, 0x1F, 0x00, 0xE0, 0x3F, 
  0x00, 0x00, 0x00, 0x00, 0x00, 0x00, 0x00, 0x00, 0x00, 0x00, 0x00, 0x00, 
  0x00, 0x00, 0xF0, 0x0F, 0x00, 0xC0, 0x3F, 0x00, 0x00, 0x00, 0x00, 0x00, 
  0x00, 0x00, 0x00, 0x00, 0x00, 0x00, 0x00, 0x00, 0x00, 0xF0, 0x0F, 0x00, 
  0xC0, 0x7F, 0x00, 0x00, 0x00, 0x00, 0x00, 0x00, 0x00, 0x00, 0x00, 0x00, 
  0x00, 0x00, 0x00, 0x00, 0xF8, 0x0F, 0x00, 0x80, 0x7F, 0x00, 0x00, 0x00, 
  0x00, 0x00, 0x00, 0x00, 0x00, 0x00, 0x00, 0x00, 0x00, 0x00, 0x00, 0xFC, 
  0x07, 0x00, 0x80, 0xFF, 0x00, 0x00, 0x00, 0x00, 0x00, 0xFC, 0xFF, 0xFF, 
  0xFF, 0x00, 0x00, 0x00, 0x00, 0x00, 0xFC, 0x03, 0x00, 0x00, 0xFF, 0x00, 
  0x00, 0x00, 0x00, 0x00, 0xFF, 0xFF, 0xFF, 0xFF, 0x01, 0x00, 0x00, 0x00, 
  0x00, 0xFE, 0x03, 0x00, 0x00, 0xFF, 0x01, 0x00, 0x00, 0x00, 0x80, 0xFF, 
  0xFF, 0xFF, 0xFF, 0x07, 0x00, 0x00, 0x00, 0x00, 0xFF, 0x01, 0x00, 0x00, 
  0xFE, 0x03, 0x00, 0x00, 0x00, 0x80, 0xFF, 0xFF, 0xFF, 0xFF, 0x07, 0x00, 
  0x00, 0x00, 0x00, 0xFF, 0x01, 0x00, 0x00, 0xFE, 0x07, 0x00, 0x00, 0x00, 
  0x80, 0xFF, 0xFF, 0xFF, 0xFF, 0x07, 0x00, 0x00, 0x00, 0x80, 0xFF, 0x00, 
  0x00, 0x00, 0xFC, 0x07, 0x00, 0x00, 0x00, 0xC0, 0xFF, 0xFF, 0xFF, 0xFF, 
  0x0F, 0x00, 0x00, 0x00, 0xC0, 0x7F, 0x00, 0x00, 0x00, 0xF8, 0x0F, 0x00, 
  0x00, 0x00, 0xC0, 0xFF, 0xFF, 0xFF, 0xFF, 0x0F, 0x00, 0x00, 0x00, 0xC0, 
  0x7F, 0x00, 0x00, 0x00, 0xF8, 0x1F, 0x00, 0x00, 0x00, 0xC0, 0xFF, 0xFF, 
  0xFF, 0xFF, 0x07, 0x00, 0x00, 0x00, 0xE0, 0x3F, 0x00, 0x00, 0x00, 0xF0, 
  0x3F, 0x00, 0x00, 0x00, 0xC0, 0xFF, 0xFF, 0xFF, 0xFF, 0x07, 0x00, 0x00, 
  0x00, 0xF0, 0x3F, 0x00, 0x00, 0x00, 0xE0, 0x7F, 0x00, 0x00, 0x00, 0x80, 
  0xFF, 0xFF, 0xFF, 0xFF, 0x07, 0x00, 0x00, 0x00, 0xF8, 0x1F, 0x00, 0x00, 
  0x00, 0xC0, 0xFF, 0x00, 0x00, 0x00, 0x00, 0xFF, 0xFF, 0xFF, 0xFF, 0x03, 
  0x00, 0x00, 0x00, 0xFC, 0x0F, 0x00, 0x00, 0x00, 0x80, 0xFF, 0x00, 0x00, 
  0x00, 0x00, 0xFE, 0xFF, 0xFF, 0xFF, 0x00, 0x00, 0x00, 0x00, 0xFE, 0x07, 
  0x00, 0x00, 0x00, 0x80, 0xFF, 0x03, 0x00, 0x00, 0x00, 0x00, 0x00, 0x00, 
  0x00, 0x00, 0x00, 0x00, 0x00, 0xFF, 0x03, 0x00, 0x00, 0x00, 0x00, 0xFF, 
  0x07, 0x00, 0x00, 0x00, 0x00, 0x00, 0x00, 0x00, 0x00, 0x00, 0x00, 0x80, 
  0xFF, 0x03, 0x00, 0x00, 0x00, 0x00, 0xFE, 0x0F, 0x00, 0x00, 0x00, 0x00, 
  0x00, 0x00, 0x00, 0x00, 0x00, 0x00, 0xC0, 0xFF, 0x00, 0x40, 0x00, 0x00, 
  0x00, 0xFC, 0x1F, 0x00, 0x00, 0x00, 0x00, 0x00, 0x00, 0x00, 0x00, 0x00, 
  0x00, 0xE0, 0xFF, 0x00, 0x00, 0x00, 0x00, 0x00, 0xF8, 0x3F, 0x00, 0x00, 
  0x00, 0x00, 0x00, 0x00, 0x00, 0x00, 0x00, 0x00, 0xF0, 0x7F, 0x00, 0x00, 
  0x00, 0x00, 0x00, 0xF0, 0x7F, 0x00, 0x00, 0x00, 0x00, 0x00, 0x00, 0x00, 
  0x00, 0x00, 0x00, 0xFC, 0x3F, 0x00, 0x00, 0x00, 0x00, 0x00, 0xE0, 0xFF, 
  0x00, 0x00, 0x00, 0x00, 0x00, 0x00, 0x00, 0x00, 0x00, 0x00, 0xFE, 0x1F, 
  0x00, 0x00, 0x00, 0x00, 0x00, 0xC0, 0xFF, 0x03, 0x00, 0x00, 0x00, 0x00, 
  0x00, 0x00, 0x00, 0x00, 0x00, 0xFF, 0x0F, 0x00, 0x00, 0x00, 0x00, 0x00, 
  0x80, 0xFF, 0x07, 0x00, 0x00, 0x00, 0x00, 0x00, 0x00, 0x00, 0x00, 0x80, 
  0xFF, 0x03, 0x00, 0x00, 0x00, 0x00, 0x00, 0x00, 0xFF, 0x1F, 0x00, 0x00, 
  0x00, 0x00, 0x00, 0x00, 0x00, 0x00, 0xF0, 0xFF, 0x01, 0x00, 0x40, 0x00, 
  0x00, 0x00, 0x00, 0xFC, 0x3F, 0x00, 0x00, 0x00, 0x00, 0x00, 0x00, 0x00, 
  0x00, 0xF8, 0xFF, 0x00, 0x00, 0x00, 0x00, 0x00, 0x00, 0x00, 0xF8, 0xFF, 
  0x00, 0x00, 0x00, 0x00, 0x00, 0x00, 0x00, 0x00, 0xFC, 0x7F, 0x00, 0x00, 
  0x02, 0x01, 0x00, 0x00, 0x00, 0xF0, 0xFF, 0x03, 0x00, 0x00, 0x00, 0x00, 
  0x00, 0x00, 0x00, 0xFF, 0x3F, 0x00, 0x00, 0x00, 0x00, 0x00, 0x00, 0x00, 
  0xE0, 0xFF, 0x0F, 0x00, 0x00, 0x00, 0x00, 0x00, 0x00, 0xC0, 0xFF, 0x0F, 
  0x00, 0x00, 0x00, 0x00, 0x00, 0x00, 0x00, 0x80, 0xFF, 0x3F, 0x00, 0x00, 
  0x00, 0x00, 0x00, 0x00, 0xF0, 0xFF, 0x07, 0x00, 0x00, 0x00, 0x08, 0x00, 
  0x00, 0x00, 0x00, 0xFF, 0xFF, 0x00, 0x00, 0x00, 0x00, 0x00, 0x00, 0xFE, 
  0xFF, 0x03, 0x00, 0x00, 0x00, 0x00, 0x00, 0x00, 0x00, 0x00, 0xFC, 0xFF, 
  0x0F, 0x00, 0x00, 0x00, 0x00, 0xC0, 0xFF, 0xFF, 0x00, 0x00, 0x00, 0x00, 
  0x00, 0x00, 0x00, 0x00, 0x00, 0xF0, 0xFF, 0x7F, 0x00, 0x00, 0x00, 0x00, 
  0xF8, 0xFF, 0x3F, 0x00, 0x00, 0x00, 0x00, 0x00, 0x00, 0x00, 0x00, 0x00, 
  0xE0, 0xFF, 0xFF, 0x07, 0x00, 0x00, 0x80, 0xFF, 0xFF, 0x0F, 0x00, 0x00, 
  0x00, 0x00, 0x00, 0x00, 0x00, 0x00, 0x00, 0x80, 0xFF, 0xFF, 0xFF, 0x00, 
  0x00, 0xFC, 0xFF, 0xFF, 0x03, 0x00, 0x00, 0x40, 0x00, 0x02, 0x00, 0x00, 
  0x00, 0x00, 0x00, 0xFE, 0xFF, 0xFF, 0xBF, 0xFF, 0xFF, 0xFF, 0xFF, 0x01, 
  0x00, 0x00, 0x00, 0x00, 0x00, 0x00, 0x00, 0x00, 0x00, 0x00, 0xF8, 0xFF, 
  0xFF, 0xFF, 0xFF, 0xFF, 0xFF, 0x3F, 0x00, 0x00, 0x00, 0x00, 0x00, 0x00, 
  0x00, 0x00, 0x00, 0x00, 0x00, 0xC0, 0xFF, 0xFF, 0xFF, 0xFF, 0xFF, 0xFF, 
  0x0F, 0x00, 0x00, 0x00, 0x00, 0x00, 0x00, 0x00, 0x00, 0x00, 0x00, 0x00, 
  0x00, 0xFE, 0xFF, 0xFF, 0xFF, 0xFF, 0xFF, 0x01, 0x00, 0x00, 0x00, 0x00, 
  0x00, 0x00, 0x00, 0x00, 0x00, 0x00, 0x00, 0x00, 0xF0, 0xFF, 0xFF, 0xFF, 
  0xFF, 0x1F, 0x00, 0x00, 0x00, 0x02, 0x00, 0x00, 0x00, 0x00, 0x00, 0x00, 
  0x00, 0x00, 0x00, 0x00, 0xFF, 0xFF, 0xFF, 0xFF, 0x07, 0x00, 0x00, 0x00, 
  0x00, 0x00, 0x00, 0x00, 0x00, 0x00, 0x00, 0x00, 0x00, 0x00, 0x00, 0xF0, 
  0xFF, 0xFF, 0x2F, 0x00, 0x00, 0x00, 0x00, 0x00, 0x40, 0x00, 0x00, 0x00, 
  0x00, 0x00, 0x00, 0x00, 0x00, 0x00, 0x00, 0xA8, 0x6A, 0x00, 0x00, 0x00, 
  0x00, 0x00, 0x00, 0x00, 0x00, 0x00, };
